<svg xmlns="http://www.w3.org/2000/svg" viewBox="0 0 460 460"><defs><style>.cls-1{fill:none;}.cls-2{fill:#fff;}</style></defs><g id="Layer_2" data-name="Layer 2"><g id="Layer_1-2" data-name="Layer 1"><rect class="cls-1" width="460" height="460"/><path class="cls-2" d="M306.45,212.06H254.6c-6.31,0-8.58,2.25-8.61,8.56-.05,7.86,0,15.71,0,23.57,0,7.54,2.05,9.59,9.56,9.6q23.06,0,46.1,0h4.81c0,3.52-.42,6.68.14,9.66.39,2.07,1.69,4.72,3.38,5.58a7.4,7.4,0,0,0,6.5-.46c13.37-10.05,26.55-20.34,39.67-30.72,3.52-2.78,3.52-7.21,0-10-13.13-10.36-26.32-20.65-39.69-30.68a7.37,7.37,0,0,0-6.47-.49c-1.68.87-3,3.5-3.4,5.57C306,205.26,306.45,208.43,306.45,212.06ZM152,94.63a31.37,31.37,0,1,0,31.5-31.38A31.49,31.49,0,0,0,152,94.63Z"/><path d="M414.5,390.3c-3.07,8.4-9.08,11.46-18,11.4-39.37-.26-78.74-.11-118.11-.11-11.69,0-17-5.27-17-16.8V263.05h35.67a16.82,16.82,0,0,1,.37,1.79c1.34,12.35,14.47,18.39,24.55,11,8.46-6.18,16.62-12.8,24.9-19.22,4.64-3.6,9.3-7.17,13.89-10.82,9.46-7.54,9.45-18.55,0-26-12.2-9.53-24.75-18.65-36.58-28.62-11.22-9.47-26.57-2.83-27,11.43H261.61c-.08-1.17-.21-2.25-.21-3.34,0-12.48-.08-24.95.07-37.43a10.4,10.4,0,0,1,1.8-5.41c3.16-4.63,6.71-9,10-13.57,9-12.54,4.67-28-9.52-34.1-1.81-.77-2.39-1.65-2.38-3.54.08-11.85,0-23.7.09-35.55a14,14,0,0,1,14.37-14.14q62.06-.07,124.11,0c7.72,0,12,4.61,14.58,11.27Z"/><path d="M30.5,323.67c2.78-9.13,9.29-13,18.48-14.36,19-2.88,37.89-6.42,57.55-9.81.76-42.32,7.65-84,14.29-126.58-6.38,3.74-12.1,7-17.63,10.46-.76.49-1,2.38-.88,3.59,1.1,17.42,2.3,34.85,3.44,52.27.41,6.19-2,11-7.51,13.94-5.22,2.75-10.41,2.25-15.17-1.24a13.25,13.25,0,0,1-5.53-10.18q-1.79-25.2-3.53-50.39-.49-7.1-.89-14.19c-.35-6.09,2.26-10.61,7.46-13.65q22.62-13.25,45.27-26.41a34.9,34.9,0,0,1,23.06-4.54c13,1.86,26,3.52,39,5.41,7.49,1.1,13.39,6.42,14.49,12.92l-9.08-1-.15.69c7.27,2.49,14.51,5.08,21.85,7.35.82.25,2.54-1.13,3.31-2.15q12.63-16.72,25.06-33.61c2.46-3.32,5.35-5.91,9.55-6.7A14.16,14.16,0,0,1,267,138c-8,10.86-16.07,21.64-24.11,32.45-3.13,4.21-6.22,8.44-9.39,12.61-4.63,6.06-10.23,7.81-17.52,5.38-9.58-3.2-19.12-6.53-28.68-9.79a6.84,6.84,0,0,0-3.7-.41c4.38,2.58,8.7,5.3,13.19,7.68,2.29,1.21,2.8,2.67,2.45,5.09-2.44,17-4.89,34.05-7.05,51.12a16.76,16.76,0,0,0,1.23,8.54c5,11.27,9.92,22.63,15.82,33.44,5.8,10.62,7.72,21.88,8.82,33.63,1.89,20.36,4.33,40.67,6.32,61a31.5,31.5,0,0,1-.56,11.43c-2.13,7.55-9.77,12-17.79,11.31a16.85,16.85,0,0,1-15-14.5q-3.9-35.31-7.52-70.67a41.49,41.49,0,0,0-3.79-14.68c-5.34-10.7-10.36-21.56-15.37-32.42a5,5,0,0,0-4.45-3.27c-5.54-.73-11-1.73-17-2.69-.45,5.91-.91,11.47-1.3,17q-1.17,17-2.3,34c-.6,9-5.94,15.15-14.84,16.71-19.18,3.36-38.38,6.61-57.57,9.9-4.18.72-8.36,1.5-12.55,2.17-13.26,2.13-18.5-.67-23.88-12.66Z"/><path d="M306.45,212.06c0-3.63-.42-6.8.14-9.79.39-2.07,1.72-4.7,3.4-5.57a7.37,7.37,0,0,1,6.47.49c13.37,10,26.56,20.32,39.69,30.68,3.51,2.77,3.51,7.2,0,10-13.12,10.38-26.3,20.67-39.67,30.72a7.4,7.4,0,0,1-6.5.46c-1.69-.86-3-3.51-3.38-5.58-.56-3-.14-6.14-.14-9.66h-4.81q-23.06,0-46.1,0c-7.51,0-9.55-2.06-9.56-9.6,0-7.86,0-15.71,0-23.57,0-6.31,2.3-8.55,8.61-8.56h51.85Z"/><path d="M152,94.63a31.37,31.37,0,1,1,31.21,31.29A31.49,31.49,0,0,1,152,94.63Z"/></g></g></svg>