<svg width="202" height="202" viewBox="0 0 202 202" fill="none" xmlns="http://www.w3.org/2000/svg">
<path d="M168.838 137.823C167.629 138.158 166.895 137.222 166.043 136.761C149.911 128.225 132.614 122.103 114.705 118.59C111.56 117.954 108.261 121.421 108.841 124.719C109.044 125.865 110.162 125.838 110.938 126.117C126.69 132.358 142.617 138.116 159.103 142.142C162.968 143.085 165.225 145.119 166.182 148.83C167.14 152.541 165.309 155.183 162.444 157.097C160.228 158.579 160.843 160.815 160.557 162.688C158.9 174.01 153.016 181.949 142.323 186.24C139.196 187.484 135.947 188.399 132.63 188.972C118.702 191.432 104.802 190.251 90.9085 188.637C82.1309 187.609 73.3742 186.449 65.1417 182.962C42.8272 173.521 30.3945 155.923 24.2236 133.203C23.8881 131.98 23.7064 130.792 22.8259 129.709C18.6327 124.768 18.2484 120.827 21.2954 115.033C23.8934 110.325 27.4675 106.227 31.7782 103.013C32.6728 102.314 33.5953 101.664 34.8812 100.714C31.4358 99.26 29.0946 97.1424 27.9345 93.9766C26.9794 91.3314 26.8888 88.4511 27.6759 85.7511C29.5209 78.8953 35.0629 74.3527 42.6245 73.6678C43.5468 73.4921 44.4927 73.4779 45.4199 73.6259C49.4873 74.765 50.8221 72.5497 52.108 69.1462C55.5987 60.0099 60.6129 51.5314 66.9377 44.0712C68.2538 42.5051 70.0206 41.3826 71.9975 40.8565C87.7935 36.2769 104.349 34.9199 120.68 36.866C122.832 37.1176 123.755 36.5445 124.607 34.6646C127.633 27.7311 131.441 21.1659 135.957 15.0966C139.801 10.0788 146.845 10.3654 150.067 15.6627C150.285 16.0541 150.585 16.3935 150.947 16.6577C151.309 16.9219 151.724 17.1046 152.163 17.1932C154.09 17.651 155.893 18.5226 157.449 19.7475C159.005 20.9725 160.275 22.5213 161.172 24.2866C162.919 27.5642 166.064 29.2485 169.467 30.2059C172.154 30.9508 174.906 31.4398 177.686 31.6665C183.514 32.1627 183.78 32.589 180.775 37.9562C176.882 44.8819 168.999 47.7402 159.76 45.5109C156.044 44.5389 152.551 42.8589 149.473 40.563C146.775 38.6411 143.98 36.7193 140.8 35.5172C139.605 35.07 138.487 34.6856 137.557 36.265C136.292 38.4524 135.461 39.5916 139.088 40.549C150.843 43.596 161.745 48.7396 172.004 55.225C173.94 56.448 174.247 57.4054 173.367 59.6068C163.625 84.0039 161.871 108.96 168.524 134.447C168.782 135.538 169.411 136.614 168.838 137.823ZM145.776 13.643C142.491 12.6506 139.535 13.2237 137.39 15.9562C132.323 22.3787 128.64 29.6259 125.111 37.3412L129.017 38.0401C132.728 39.6754 134.93 38.683 136.802 34.8463C139.542 29.2555 143.47 24.2866 147.355 19.3736C149.522 16.5712 149.186 15.3901 145.783 13.643H145.776ZM142.98 28.3609C142.24 29.3883 141.464 30.3946 140.751 31.4429C139.954 32.61 139.898 33.4696 141.548 34.0496C145.538 35.4473 148.865 38.082 152.31 40.4372C157.056 43.7057 162.848 45.0908 168.559 44.3228C173.702 43.7148 177.644 41.1151 179.957 36.2371C180.865 34.2942 180.9 33.1411 178.273 33.3019C174.485 33.5255 170.914 32.4982 167.378 31.3101C163.842 30.0269 160.907 27.4801 159.138 24.1608C158.277 22.6279 157.041 21.3389 155.546 20.4149C151.702 17.8361 150.374 18.0738 147.572 21.8126C145.958 23.9511 144.113 25.9149 142.959 28.3609H142.98ZM56.2662 176.519L57.7548 177.567C65.2141 182.044 73.5626 184.835 82.2148 185.744L89.2033 186.792C97.2484 188.037 105.37 188.726 113.51 188.853C121.784 189.063 130.017 188.483 138.025 186.17C150.717 182.501 157.978 173.807 159.18 161.402C159.432 158.754 158.537 158.104 156.217 157.587C122.427 150.095 90.4403 138.019 60.9695 119.66C60.2147 119.191 59.5718 118.36 58.5235 118.569C58.4047 118.758 58.1811 118.947 58.188 119.128C59.3062 139.395 64.4219 158.264 77.6792 174.282C78.378 175.142 79.5661 175.757 79.4263 177.148C77.7351 177.609 77.2249 176.106 76.4562 175.226C72.2815 170.384 68.7919 164.992 66.0851 159.201C57.1048 140.178 55.3088 120.016 56.7274 99.3648C57.014 95.0808 57.7128 90.8108 57.7268 86.5338C57.7268 80.5446 54.0788 76.6939 48.0546 75.7225C38.4523 73.4861 29.7865 79.3216 28.8221 88.6653C28.2001 94.7244 32.1766 99.3998 38.2427 99.5675C40.6753 99.6599 43.1115 99.5454 45.5248 99.2251C52.2548 98.2397 54.7287 93.145 51.5838 87.0509C50.8221 85.5694 49.7948 84.5001 48.0197 85.1221C47.2849 85.3434 46.6575 85.828 46.2577 86.483C45.858 87.1381 45.7139 87.9176 45.8532 88.6723C45.8655 89.9618 46.3447 91.2032 47.202 92.1666C47.202 92.6208 47.3418 93.2358 47.1112 93.4874C46.5661 94.0675 46.0978 93.5853 45.7134 93.0891C44.5582 91.4675 44.0407 89.4771 44.2598 87.4982C44.3445 86.6216 44.6881 85.79 45.2469 85.1092C45.8057 84.4285 46.5544 83.9294 47.3977 83.6755C48.103 83.383 48.8774 83.2987 49.6291 83.4324C50.3809 83.5662 51.0786 83.9124 51.6398 84.4302C55.3227 87.659 55.134 96.3108 51.1086 99.0433C49.5362 100.092 49.3405 101.182 49.4104 102.754C49.7262 111.695 50.6602 120.604 52.2058 129.416C55.2878 146.035 60.3755 161.815 71.6201 174.974C72.1792 175.631 73.0947 176.239 72.5146 177.357C70.9841 177.357 70.4181 176.015 69.6283 175.079C65.6851 170.343 62.375 165.113 59.7814 159.522C52.2128 143.512 49.4523 126.39 48.1035 108.939C47.9009 106.409 48.7255 103.048 47.4047 101.538C45.8462 99.7492 42.4148 101.538 39.8291 101.154C37.0336 100.749 36.1671 101.748 36.0902 104.648C35.5381 126.942 39.4796 148.089 51.4091 167.308C49.2636 168.51 49.1309 166.35 48.5578 165.407C41.066 152.967 37.0546 139.409 35.3634 125.111C35.2585 124.237 35.6569 123.014 34.6645 122.616C33.6721 122.217 33.0432 123.315 32.3583 123.881C23.5527 131.303 24.6709 128.878 27.7109 139.332C27.9345 140.108 28.2001 140.877 28.4936 141.632C34.1683 156.14 42.6385 168.426 56.2872 176.575L56.2662 176.519ZM140.849 43.0649C140.231 42.7485 139.591 42.4776 138.934 42.2542C116.452 35.9645 94.0185 36.2231 71.6201 42.7155C70.4133 43.093 69.3472 43.8232 68.5591 44.812C61.5286 52.8978 56.5178 62.1367 52.5902 72.0675C51.8913 73.8775 52.0381 74.9537 53.8202 76.0719C57.0279 78.0846 58.7821 81.0967 59.3202 84.9334C60.0191 90.098 58.3558 95.0668 58.3418 100.162C58.3418 102.041 58.7891 103.104 60.5712 103.914C66.812 106.745 72.9759 109.75 79.1747 112.671C80.7623 113.385 82.4739 113.781 84.2135 113.838C93.0191 114.299 101.811 114.761 110.546 116.221C119.149 117.661 127.487 120.128 135.964 122.05C146.286 125.893 156.636 129.667 166.895 135.405C163.966 123.86 162.67 111.961 163.045 100.057C163.486 87.5189 165.86 75.1244 170.082 63.3108C172.179 57.3076 172.27 57.1259 166.714 54.023C158.502 49.4385 150.158 45.0916 140.849 43.0649ZM57.8177 104.564C57.8177 106.933 58.0343 108.827 57.7757 110.644C57.2446 114.348 58.7332 116.452 61.9199 118.423C91.4886 136.684 123.517 148.641 157.314 156.161C160.85 156.951 163.96 155.015 164.652 151.793C164.977 150.197 164.692 148.536 163.852 147.14C163.012 145.743 161.679 144.713 160.116 144.252C133.986 137.425 108.918 127.641 84.2764 116.724C75.5966 112.895 67.0146 108.813 57.8177 104.578V104.564ZM34.7554 102.95C28.2141 107.786 23.0984 112.734 21.1836 120.212C20.4847 123.007 21.2604 125.481 23.0076 127.683C23.3989 128.179 23.9091 129.08 24.6499 128.444C28.0114 125.649 31.31 122.742 34.6016 119.848C34.7973 119.674 34.7484 119.149 34.7484 118.842C34.7344 113.803 34.7344 108.743 34.7344 102.964L34.7554 102.95ZM109.219 117.892C106.214 116.906 103.055 116.857 99.9657 116.431C99.0013 116.298 97.6875 115.977 97.6595 117.647C97.6595 118.919 96.765 120.505 98.7357 121.204C99.5045 121.477 100.245 121.805 101 122.12C107.332 124.761 107.332 124.761 109.198 117.905L109.219 117.892ZM86.2402 115.844C89.1964 117.151 91.3488 118.171 93.5502 119.052C94.2491 119.317 95.0947 120.268 95.6887 119.408C96.1284 118.592 96.2786 117.651 96.115 116.738C95.9753 115.669 94.8641 115.886 94.1233 115.865C91.7961 115.816 89.4689 115.858 86.2192 115.858L86.2402 115.844Z" fill="#171212"/>
<path d="M79.4053 177.127C79.545 175.729 78.371 175.121 77.6581 174.261C64.3798 158.264 59.2852 139.388 58.167 119.107C58.167 118.926 58.3836 118.737 58.5024 118.548C59.5717 118.339 60.1937 119.17 60.9484 119.639C90.4193 138.012 122.406 150.074 156.196 157.566C158.516 158.083 159.41 158.733 159.159 161.381C157.957 173.786 150.696 182.48 138.004 186.149C129.996 188.462 121.763 189.042 113.489 188.832C105.349 188.705 97.2273 188.016 89.1823 186.771C85.8907 183.584 82.1308 180.879 79.4053 177.127Z" fill="#FDB28F"/>
<path d="M135.964 122.042C127.487 120.121 119.149 117.654 110.546 116.214C101.811 114.753 93.0191 114.292 84.2135 113.831C82.4739 113.774 80.7623 113.377 79.1747 112.664C72.9759 109.742 66.8119 106.737 60.5711 103.907C58.7891 103.096 58.3348 102.034 58.3418 100.154C58.3418 95.0595 60.047 90.0906 59.3202 84.9261C58.7821 81.0893 57.0279 78.0773 53.8202 76.0646C52.0381 74.9464 51.8704 73.8701 52.5902 72.0601C56.5178 62.1643 61.5286 52.9254 68.5591 44.8396C69.3472 43.8508 70.4133 43.1206 71.6201 42.743C94.0184 36.2507 116.452 35.9921 138.934 42.2818C139.591 42.5052 140.231 42.7761 140.849 43.0925C140.851 44.1404 141.128 45.1693 141.653 46.0766C147.837 59.7183 152.317 73.7024 151.395 89.0004C150.985 97.7005 148.108 106.104 143.099 113.23C140.912 116.368 137.257 118.241 135.964 122.042ZM136.153 66.7278C135.642 65.4559 135.321 64.0582 134.573 62.933C133.525 61.3466 133.259 58.7399 130.38 59.0683L128.283 56.9718C128.654 55.2037 127.396 54.5048 126.187 53.757C116.095 47.4673 105.522 46.5308 94.6055 51.2551C75.5896 59.4807 72.8291 84.4648 89.4898 97.0303C90.0839 97.3964 90.5106 97.9811 90.6779 98.6586C91.838 104.823 96.0731 107.842 101.699 109.428C101.902 109.826 101.999 110.392 102.328 110.609C107.954 114.355 117.703 111.958 120.848 105.927C121.217 105.094 121.761 104.351 122.444 103.748C123.127 103.145 123.931 102.696 124.803 102.432C127.962 101.426 130.394 99.3225 132.491 96.7857C137.012 91.3975 139.011 85.0029 139.255 78.231C139.451 74.2964 139.703 69.8587 136.153 66.7278Z" fill="#4F508A"/>
<path d="M135.964 122.043C137.257 118.241 140.912 116.368 143.099 113.244C148.116 106.107 150.993 97.6874 151.395 88.9729C152.317 73.6749 147.837 59.6908 141.653 46.0491C141.128 45.1418 140.851 44.1128 140.849 43.0649C150.158 45.0916 158.502 49.4385 166.707 54.016C172.297 57.119 172.207 57.3007 170.075 63.3038C165.853 75.1175 163.479 87.512 163.038 100.05C162.663 111.955 163.959 123.853 166.888 135.398C156.636 129.66 146.286 125.887 135.964 122.043Z" fill="#3C3D77"/>
<path d="M57.8176 104.578C67.0146 108.813 75.5965 112.895 84.2763 116.738C108.918 127.654 133.986 137.438 160.116 144.266C161.679 144.727 163.012 145.757 163.852 147.154C164.692 148.55 164.977 150.21 164.652 151.807C163.953 155.029 160.85 156.964 157.314 156.175C123.517 148.655 91.4885 136.698 61.9199 118.436C58.7331 116.466 57.2445 114.362 57.7757 110.658C58.0203 108.841 57.8176 106.94 57.8176 104.578Z" fill="#F99F7F"/>
<path d="M51.4021 167.279C39.4726 148.061 35.5311 126.913 36.0832 104.62C36.16 101.692 36.9987 100.692 39.8221 101.126C42.4078 101.503 45.8392 99.7278 47.3977 101.51C48.7185 103.019 47.8939 106.402 48.0965 108.911C49.4453 126.382 52.2058 143.483 59.7744 159.494C62.368 165.085 65.6781 170.314 69.6213 175.051C70.411 175.987 70.9771 177.301 72.5076 177.329L82.2287 185.75C73.5766 184.841 65.228 182.051 57.7687 177.574C57.7475 177.403 57.691 177.24 57.6027 177.093C57.5145 176.946 57.3965 176.819 57.2564 176.72C57.1162 176.621 56.957 176.553 56.7888 176.519C56.6207 176.486 56.4475 176.488 56.2801 176.525V176.595C56.6436 175.197 55.8538 174.289 55.0082 173.311C53.4568 171.507 51.8773 169.718 51.4021 167.279Z" fill="#F08C67"/>
<path d="M82.2286 185.723L72.5075 177.301C73.0876 176.183 72.1721 175.575 71.613 174.918C60.3684 161.759 55.2807 145.979 52.1988 129.36C50.6531 120.548 49.7191 111.639 49.4033 102.698C49.3334 101.126 49.5291 100.036 51.1015 98.9874C55.1479 96.2758 55.2947 87.603 51.6327 84.3743C51.0715 83.8565 50.3738 83.5102 49.622 83.3765C48.8703 83.2427 48.0959 83.3271 47.3906 83.6195C46.5473 83.8734 45.7986 84.3725 45.2398 85.0533C44.681 85.734 44.3374 86.5656 44.2527 87.4423C44.0337 89.4212 44.5511 91.4115 45.7064 93.0331C46.0628 93.5293 46.531 94.0115 47.1041 93.4315C47.3347 93.1799 47.174 92.5649 47.1949 92.1106C47.4325 91.1043 47.6562 90.091 47.8938 89.0916C48.0685 88.3927 48.362 87.7568 49.2915 87.8616C49.5842 87.8795 49.8638 87.989 50.0909 88.1747C50.3179 88.3603 50.4807 88.6126 50.5564 88.8959C51.1295 91.272 50.9478 93.5573 49.0749 95.3254C47.3906 96.9188 45.5806 98.5331 43.0647 96.7231C42.7013 96.0243 42.3658 95.2835 41.9745 94.5916C38.5291 88.6932 38.7527 85.4645 43.1136 80.1812C43.6937 79.4823 44.0291 78.8953 43.5888 78.0426C45.2178 77.5641 46.734 76.7632 48.0475 75.6875C54.0717 76.6589 57.7407 80.5096 57.7197 86.4988C57.7197 90.7758 57.0209 95.0458 56.7204 99.3298C55.3226 119.981 57.0977 140.143 66.0781 159.166C68.7848 164.957 72.2744 170.349 76.4491 175.191C77.2178 176.071 77.728 177.574 79.4192 177.113C82.1448 180.866 85.9046 183.57 89.2032 186.757L82.2286 185.723Z" fill="#F59C7D"/>
<path d="M51.4021 167.279C51.8774 169.718 53.4568 171.508 55.0013 173.283C55.8469 174.261 56.6366 175.17 56.2732 176.567C42.6245 168.398 34.1543 156.112 28.4796 141.624C28.1861 140.87 27.9205 140.101 27.6969 139.325C24.6639 128.842 23.5038 131.295 32.3443 123.873C33.0432 123.3 33.742 122.266 34.6505 122.608C35.559 122.951 35.2585 124.23 35.3494 125.103C37.0336 139.43 41.0521 152.988 48.5368 165.399C49.1239 166.343 49.2566 168.481 51.4021 167.279Z" fill="#F9AF8C"/>
<path d="M43.0508 96.7369C45.5806 98.5469 47.3767 96.9326 49.0609 95.3392C50.9339 93.5711 51.1156 91.2858 50.5425 88.9097C50.4668 88.6264 50.3039 88.3741 50.0769 88.1885C49.8499 88.0028 49.5703 87.8933 49.2776 87.8754C48.3691 87.7706 48.0756 88.3995 47.8799 89.1054C47.6213 90.1047 47.3977 91.1181 47.181 92.1244C46.3237 91.1611 45.8445 89.9197 45.8322 88.6302C45.6929 87.8755 45.837 87.096 46.2367 86.4409C46.6365 85.7858 47.2639 85.3012 47.9987 85.08C49.7738 84.458 50.7941 85.5272 51.5629 87.0088C54.7077 93.1028 52.2617 98.1905 45.5038 99.1829C43.0905 99.5032 40.6544 99.6178 38.2217 99.5253C32.1556 99.3576 28.1791 94.6822 28.8011 88.6232C29.7655 79.3004 38.4523 73.465 48.0336 75.7013C46.7201 76.777 45.2039 77.5779 43.5749 78.0564C35.6639 82.6829 37.418 91.6842 41.4783 96.6041C41.9466 97.1562 42.5057 96.9535 43.0508 96.7369Z" fill="#EB8A65"/>
<path d="M142.959 28.3607C144.112 25.9147 145.957 23.9509 147.551 21.8124C150.346 18.0736 151.681 17.8359 155.525 20.4147C157.02 21.3387 158.256 22.6277 159.117 24.1606C160.886 27.4799 163.821 30.0267 167.356 31.3099C167.531 38.1937 164.785 40.2064 158.341 37.7534C152.646 35.5869 147.823 31.9319 142.959 28.3607Z" fill="#4F508A"/>
<path d="M142.959 28.3608C147.851 31.932 152.645 35.587 158.334 37.7535C164.778 40.2065 167.524 38.1938 167.349 31.31C170.886 32.4981 174.457 33.5254 178.245 33.3018C180.872 33.141 180.837 34.2941 179.929 36.237C177.644 41.129 173.674 43.7147 168.531 44.3227C162.82 45.0907 157.028 43.7056 152.282 40.4371C148.837 38.0819 145.51 35.4612 141.52 34.0495C139.87 33.4695 139.926 32.6099 140.723 31.4428C141.443 30.3945 142.219 29.3672 142.959 28.3608Z" fill="#3C3D76"/>
<path d="M34.7343 102.964C34.7343 108.743 34.7343 113.803 34.7343 118.856C34.7343 119.198 34.7832 119.688 34.5876 119.862C31.2959 122.756 27.9973 125.649 24.6358 128.458C23.895 129.073 23.3849 128.193 22.9935 127.696C21.2464 125.495 20.4567 123.007 21.1695 120.226C23.0774 112.748 28.193 107.8 34.7343 102.964Z" fill="#F59C7D"/>
<path d="M145.783 13.6431C149.186 15.3902 149.522 16.5713 147.341 19.3388C143.456 24.2308 139.528 29.1996 136.788 34.8115C134.916 38.6482 132.714 39.6406 129.003 38.0052C131.506 33.2038 134.307 28.5636 137.389 24.1119C139.884 20.3661 143.693 17.6964 145.783 13.6431Z" fill="#F99F7F"/>
<path d="M145.783 13.643C143.686 17.6964 139.884 20.366 137.397 24.1258C134.314 28.5775 131.513 33.2177 129.01 38.0191L125.104 37.3203C128.647 29.6328 132.33 22.3647 137.39 15.9352C139.542 13.2237 142.498 12.6506 145.783 13.643Z" fill="#F9AF8C"/>
<path d="M109.198 117.905C107.332 124.761 107.332 124.761 100.979 122.134C100.224 121.819 99.4834 121.491 98.7147 121.218C96.7439 120.519 97.6105 118.933 97.6385 117.661C97.6385 115.991 98.9803 116.312 99.9447 116.445C103.034 116.871 106.192 116.92 109.198 117.905Z" fill="#F59C7D"/>
<path d="M86.2192 115.858C89.4899 115.858 91.8101 115.816 94.1023 115.858C94.8431 115.858 95.9543 115.662 96.0941 116.731C96.2577 117.644 96.1074 118.585 95.6678 119.401C95.0738 120.26 94.2002 119.31 93.5293 119.044C91.3279 118.185 89.1754 117.164 86.2192 115.858Z" fill="#D9DADB"/>
<path d="M56.2452 176.497C56.4125 176.46 56.5858 176.458 56.7539 176.492C56.9221 176.525 57.0813 176.593 57.2215 176.692C57.3616 176.791 57.4796 176.918 57.5678 177.065C57.6561 177.212 57.7126 177.376 57.7338 177.546L56.2452 176.497Z" fill="#F9AF8C"/>
<path d="M128.318 56.9718L130.415 59.0684C130.565 59.4839 130.749 59.8861 130.967 60.2704C138.536 71.4522 135.733 88.4134 124.978 96.4922C123.524 97.5824 122.008 98.5119 120.274 98.4839C119.079 96.8556 121.672 94.2908 118.618 93.4102C118.437 91.9496 119.499 90.9712 120.268 90.0837C121.935 88.1429 123.22 85.9046 124.055 83.4865C124.992 80.7959 126.851 77.9795 124.524 75.0513C124.524 73.9541 124.524 72.8638 124.524 71.7736C126.753 69.2088 124.803 66.665 124.188 64.3238C123.14 60.3194 121.393 56.4896 119.995 52.583C123.203 53.226 125.46 55.665 128.318 56.9718Z" fill="#EDDFE2"/>
<path d="M128.318 56.972C125.46 55.6651 123.203 53.2261 119.995 52.5831C113.873 49.7178 107.506 49.3544 100.993 50.843C81.3901 55.3227 73.6677 77.2109 86.317 92.432C87.3583 93.6829 88.4625 95.4231 90.0629 95.2274C91.5445 95.0317 90.8596 92.8792 91.4606 91.7331C91.5864 91.5025 91.9847 91.4186 92.6487 91.0343C92.9002 93.8926 92.0127 96.4993 92.6487 99.0571C93.2846 101.615 94.27 103.949 97.1842 105.2C97.317 101.594 96.3526 98.1696 98.54 95.0107C98.7171 98.3979 98.8964 101.79 99.0781 105.186C99.6442 108.59 102.649 107.157 104.536 107.814C106.633 108.548 107.793 107.555 107.388 105.2C108.366 102.908 108.086 100.399 108.618 98.0368C108.778 97.3379 108.261 96.094 109.519 96.1918C110.777 96.2897 109.938 97.5336 110.253 98.2045C109.848 101.116 109.445 104.031 109.044 106.947C109.086 107.22 109.121 107.492 109.156 107.765L109.659 107.492C114.159 107.066 116.564 104.313 117.87 100.245C118.569 97.9949 118.367 95.6747 118.646 93.3964C121.714 94.2839 119.107 96.8418 120.302 98.4701C122.036 98.4701 123.552 97.5686 125.006 96.4783C135.761 88.3996 138.564 71.4103 130.995 60.2566C130.777 59.8722 130.593 59.4701 130.443 59.0545C133.294 58.7471 133.56 61.3328 134.636 62.9192C135.384 64.0444 135.705 65.4421 136.215 66.714C136.979 70.4734 137.142 74.33 136.698 78.1403C135.845 86.3729 132.4 93.4383 125.453 98.0857C122.14 100.308 118.464 101.727 116.745 105.773C116.319 106.766 114.802 107.346 113.726 108.009C109.98 110.309 105.801 109.163 101.797 109.407C96.1709 107.821 91.9358 104.802 90.7757 98.6378C90.6084 97.9603 90.1818 97.3756 89.5877 97.0095C72.9269 84.43 75.6874 59.4599 94.7033 51.2343C105.619 46.5101 116.193 47.4745 126.285 53.7362C127.431 54.526 128.689 55.2248 128.318 56.972Z" fill="#151417"/>
<path d="M101.734 109.428C105.738 109.176 109.917 110.323 113.663 108.03C114.739 107.331 116.256 106.786 116.682 105.794C118.402 101.748 122.077 100.329 125.39 98.1066C132.337 93.4592 135.782 86.3937 136.635 78.1612C137.079 74.3509 136.916 70.4942 136.152 66.7349C139.703 69.8657 139.451 74.3035 139.304 78.238C139.06 85.01 137.061 91.4045 132.539 96.7927C130.401 99.3296 127.997 101.433 124.852 102.439C123.98 102.703 123.175 103.152 122.493 103.755C121.81 104.358 121.266 105.101 120.896 105.934C117.759 111.965 108.003 114.362 102.377 110.616C102.048 110.392 101.936 109.826 101.734 109.428Z" fill="#3C3D76"/>
<path d="M43.0508 96.7371C42.5057 96.9537 41.9536 97.1704 41.4854 96.6043C37.418 91.7123 35.6639 82.6831 43.5819 78.0566C44.0222 78.9092 43.6868 79.4893 43.1067 80.1951C38.7459 85.4785 38.5222 88.7072 41.9676 94.6056C42.3589 95.2975 42.6874 96.0243 43.0508 96.7371Z" fill="#171212"/>
<path d="M99.0572 105.186C98.8755 101.79 98.6961 98.3979 98.519 95.0107C96.3316 98.1696 97.296 101.594 97.1633 105.2C94.249 103.956 93.2427 101.706 92.6277 99.0571C92.0127 96.4085 92.9142 93.8926 92.6277 91.0342C91.9638 91.3977 91.5654 91.4815 91.4396 91.7331C90.8176 92.8862 91.5025 95.0387 90.0419 95.2274C88.4415 95.437 87.3373 93.6969 86.296 92.432C73.6537 77.2109 81.404 55.3226 100.972 50.843C107.485 49.3544 113.852 49.7178 119.974 52.5831C121.372 56.4897 123.119 60.3195 124.167 64.3239C124.782 66.6651 126.732 69.2159 124.503 71.7737C124.206 70.3032 123.807 68.8553 123.308 67.4408C122.064 64.5476 120.198 62.1435 116.759 61.9129C113.167 61.6683 110.868 63.8068 109.344 66.742C106.71 71.8157 106.514 77.0222 109.435 82.04C112.356 87.0577 117.898 87.2604 121.504 82.7388C123.308 80.4745 123.922 77.7769 124.496 75.0514C126.795 77.9796 124.964 80.796 124.027 83.4866C123.192 85.9047 121.907 88.143 120.24 90.0838C119.471 90.9714 118.409 91.9497 118.59 93.4104C115.019 93.655 113.419 97.3519 110.204 98.2185C109.889 97.5196 110.651 96.2966 109.47 96.2058C108.289 96.1149 108.729 97.3589 108.569 98.0508C108.037 100.413 108.317 102.943 107.339 105.214C104.599 105.172 101.825 105.773 99.0572 105.186ZM104.208 72.6264C104.075 70.3061 103.795 68.0279 102.656 65.9243C99.791 60.6479 94.3469 60.3335 91.1112 65.3862C89.607 67.6092 88.7362 70.1996 88.5921 72.8798C88.4481 75.56 89.0362 78.2289 90.2935 80.6003C92.9771 85.9815 98.4212 86.1912 101.832 81.1873C103.6 78.6016 104.145 75.6734 104.208 72.6264Z" fill="#F8EFF1"/>
<path d="M124.516 75.0516C123.943 77.7702 123.328 80.4677 121.525 82.739C117.919 87.2676 112.356 87.037 109.456 82.0402C106.556 77.0433 106.731 71.8159 109.365 66.7422C110.889 63.807 113.188 61.6685 116.78 61.9131C120.219 62.1437 122.084 64.5478 123.328 67.4411C123.828 68.8555 124.227 70.3034 124.523 71.774C124.523 72.8642 124.523 73.9544 124.516 75.0516ZM122.734 73.0179C122.848 70.9758 122.363 68.9449 121.337 67.1755C118.772 62.598 114.516 62.3324 111.413 66.5535C108.673 70.2644 108.464 77.6933 110.994 81.4042C113.412 84.8985 116.766 85.234 119.708 82.145C122.029 79.734 122.783 76.7638 122.734 73.0179Z" fill="#151417"/>
<path d="M110.232 98.2046C113.454 97.338 115.054 93.6411 118.618 93.3965C118.339 95.6748 118.562 97.995 117.842 100.245C116.536 104.313 114.132 107.066 109.631 107.492L109.037 106.94C109.433 104.033 109.831 101.121 110.232 98.2046Z" fill="#EDDFE2"/>
<path d="M99.0571 105.186C101.853 105.773 104.599 105.186 107.367 105.186C107.772 107.541 106.619 108.534 104.515 107.8C102.628 107.157 99.6232 108.589 99.0571 105.186Z" fill="#D9DADB"/>
<path d="M109.638 107.492L109.135 107.765C109.135 107.492 109.065 107.22 109.023 106.947L109.638 107.492Z" fill="#EDDFE2"/>
<path d="M104.208 72.6265C104.11 75.6735 103.6 78.6017 101.832 81.1875C98.4212 86.1773 92.9771 85.9816 90.2935 80.6004C89.0362 78.229 88.4481 75.5602 88.5921 72.8799C88.7362 70.1997 89.607 67.6093 91.1111 65.3863C94.3468 60.2986 99.7909 60.648 102.656 65.9244C103.795 68.028 104.075 70.3063 104.208 72.6265ZM102.475 73.7936C102.516 70.0267 101.964 67.5667 100.287 65.5051C98.0718 62.7796 95.1855 62.8355 92.9841 65.582C90.0559 69.216 89.6086 76.5191 92.0686 80.3628C94.1651 83.5915 97.2681 83.8571 99.8189 81.0617C101.526 79.0233 102.465 76.452 102.475 73.7936Z" fill="#151417"/>
<path d="M122.734 73.0177C122.783 76.7636 122.036 79.7337 119.729 82.1448C116.787 85.2337 113.44 84.9402 111.015 81.404C108.485 77.6931 108.694 70.2642 111.434 66.5533C114.537 62.3601 118.793 62.5978 121.358 67.1753C122.376 68.9469 122.855 70.9777 122.734 73.0177Z" fill="#4F508A"/>
<path d="M102.475 73.7935C102.459 76.4423 101.52 79.0027 99.819 81.0336C97.2682 83.878 94.1443 83.5914 92.0687 80.3348C89.6087 76.491 90.0559 69.153 92.9842 65.5539C95.1856 62.8074 98.0718 62.7585 100.287 65.4771C101.964 67.5666 102.517 70.0266 102.475 73.7935Z" fill="#4F508A"/>
</svg>
