<svg width="182" height="182" viewBox="0 0 182 182" fill="none" xmlns="http://www.w3.org/2000/svg">
<g opacity="0.6" clip-path="url(#clip0_46_96)">
<path d="M93.5204 147.952C102.436 147.952 110.825 148.045 119.208 147.896C121.966 147.846 123.886 148.606 125.507 150.914C127.896 154.287 130.704 157.37 133.107 160.736C134.387 162.526 135.638 162.98 137.821 162.554C142.726 161.596 147.063 164.33 148.713 168.996C149.475 171.134 149.466 173.47 148.687 175.602C147.908 177.734 146.409 179.527 144.447 180.672C142.688 181.668 140.672 182.12 138.655 181.969C136.639 181.819 134.713 181.073 133.121 179.827C129.972 177.263 128.479 173.058 130.057 169.33C131.116 166.823 130.576 165.225 128.962 163.357C126.118 160.054 124.049 155.253 120.487 153.57C116.79 151.823 111.693 153.002 107.207 152.952C102.834 152.917 98.4545 152.952 93.6982 152.952C93.1365 162.959 89.3257 171.162 81.0075 176.844C75.9065 180.405 69.741 182.119 63.5319 181.702C49.5543 180.842 39.8994 171.496 36.6503 155.736C35.4772 155.417 34.2259 155.118 33.0031 154.728C27.529 153.006 22.8404 149.406 19.7662 144.565C16.6919 139.724 15.4298 133.953 16.203 128.272C16.3817 127.43 16.3108 126.555 15.9989 125.752C15.687 124.95 15.1476 124.256 14.4469 123.755C9.86656 119.881 6.19742 115.046 3.70058 109.594C1.20373 104.142 -0.0594294 98.2069 0.000985964 92.2117C0.0614013 86.2165 1.44391 80.3084 4.05012 74.9077C6.65633 69.507 10.4222 64.7465 15.0796 60.965C16.7575 59.5446 17.2907 58.4935 16.7362 56.2492C13.4586 43.1173 20.9238 30.4044 33.9913 26.7113C35.8612 26.1858 36.8352 25.6673 37.2618 23.4443C40.2265 8.267 52.6755 -1.04393 68.0963 0.0924126C81.9459 1.11512 92.8095 13.0112 93.4849 27.8903C93.5418 29.1545 93.4849 30.4328 93.4849 31.9953C103.957 31.9953 114.032 31.626 124.056 32.1374C129.908 32.4357 134.209 30.9087 137.863 26.3562C139.861 23.8633 142.065 22.2156 140.494 18.2953C139.072 14.6945 141.731 10.2059 145.357 8.19598C147.189 7.18846 149.294 6.7879 151.368 7.05199C153.443 7.31609 155.38 8.23122 156.9 9.66552C158.42 11.0998 159.446 12.9793 159.828 15.033C160.211 17.0868 159.931 19.2089 159.029 21.0935C157.173 24.95 152.978 27.4854 148.812 26.4272C145.84 25.6531 144.056 26.4272 142.513 28.6289C137.536 35.6458 130.91 37.8617 122.35 37.1515C113.172 36.4413 103.865 37.0166 94.6224 37.045C94.3159 37.1194 94.0198 37.2315 93.7408 37.3788V48.1314H97.4023C118.02 48.1314 138.638 48.1314 159.256 48.174C161.339 48.174 162.612 47.7692 163.693 45.7096C164.689 43.801 166.317 42.2968 168.299 41.4536C170.282 40.6104 172.496 40.4805 174.563 41.0861C176.714 41.6084 178.624 42.8465 179.976 44.5969C181.329 46.3473 182.046 48.5056 182.007 50.7166C181.965 52.8625 181.229 54.9373 179.91 56.6309C178.59 58.3245 176.757 59.5459 174.684 60.1128C172.609 60.6889 170.4 60.551 168.413 59.7215C166.426 58.8919 164.776 57.4187 163.728 55.539C162.811 53.9765 162.1 53.0674 160.024 53.0745C138.695 53.1598 117.366 53.1314 96.0373 53.1385C95.3263 53.1385 94.6722 53.245 93.7622 53.316V68.3797H97.5943C108.614 68.3797 119.634 68.2661 130.654 68.4933C132.817 68.6053 134.876 69.458 136.484 70.9081C146.096 80.219 155.51 89.7359 164.923 99.2244C166.266 100.574 167.326 101.249 169.487 100.531C171.602 99.8523 173.888 99.9393 175.945 100.777C178.002 101.615 179.698 103.15 180.735 105.112C181.791 106.982 182.202 109.148 181.904 111.275C181.606 113.402 180.615 115.372 179.085 116.88C177.547 118.379 175.566 119.34 173.436 119.62C171.306 119.9 169.143 119.485 167.269 118.436C165.34 117.365 163.841 115.66 163.029 113.61C162.216 111.561 162.139 109.293 162.811 107.193C163.387 105.332 163.046 104.253 161.702 102.932C152.424 93.7841 143.26 84.53 133.974 75.3824C133.05 74.4662 131.642 73.5075 130.42 73.4933C118.696 73.3583 106.958 73.4151 95.2339 73.4364C94.7138 73.5036 94.2017 73.6226 93.7053 73.7915V88.2729C98.2484 88.2729 102.607 88.3581 106.943 88.1805C107.654 88.1805 108.543 87.0513 109.019 86.2487C111.607 81.888 115.767 79.9491 120.395 81.0784C122.484 81.6158 124.339 82.8232 125.675 84.5153C127.01 86.2073 127.754 88.2905 127.79 90.4451C127.826 92.5998 127.154 94.7068 125.876 96.4428C124.598 98.1788 122.785 99.4479 120.715 100.055C116.2 101.348 111.991 99.5369 109.169 95.233C108.657 94.4446 107.747 93.4361 106.972 93.3935C103.545 93.1876 100.104 93.2799 96.6629 93.3012C95.7458 93.3012 94.8286 93.4432 93.6982 93.5427V108.18H100.865C111.408 108.18 121.959 108.18 132.503 108.18C134.337 108.18 135.411 107.768 136.37 105.993C137.375 104.018 139.04 102.457 141.076 101.579C143.111 100.701 145.39 100.561 147.518 101.185C149.584 101.776 151.407 103.011 152.721 104.711C154.034 106.41 154.77 108.484 154.82 110.63C154.807 112.777 154.1 114.862 152.803 116.573C151.506 118.285 149.69 119.531 147.625 120.126C143.061 121.433 138.88 119.572 136.136 115.261C135.553 114.345 134.316 113.251 133.37 113.237C120.573 113.116 107.775 113.173 94.9779 113.237C94.5502 113.307 94.1324 113.429 93.7337 113.599V128.073H101.135C106.346 128.073 111.558 128.024 116.776 128.073C118.546 128.073 119.712 127.803 120.694 125.943C121.68 123.96 123.329 122.384 125.356 121.487C127.382 120.591 129.659 120.431 131.792 121.035C133.865 121.605 135.701 122.823 137.031 124.512C138.36 126.2 139.113 128.27 139.179 130.417C139.182 132.621 138.452 134.764 137.103 136.509C135.754 138.253 133.863 139.501 131.728 140.055C127.284 141.227 123.239 139.344 120.523 135.225C120.13 134.654 119.624 134.17 119.035 133.804C118.447 133.437 117.789 133.196 117.103 133.095C110.235 132.896 103.36 133.095 96.4852 132.953C94.1461 132.91 93.3427 133.663 93.4351 135.999C93.6271 139.835 93.5204 143.613 93.5204 147.952ZM88.501 90.9078C88.501 79.6721 88.501 68.4294 88.501 57.1938C88.501 46.782 88.7925 36.3489 88.2095 25.9443C87.5341 14.0411 76.9976 4.9716 64.9467 5.04972C52.8959 5.12785 42.7291 14.4672 41.9826 26.3562C41.7906 29.4954 40.5962 30.5749 37.6243 31.0791C24.7914 33.2595 17.8097 45.2835 22.3102 57.3998C23.2628 59.9707 22.9287 61.3912 20.6607 63.0176C0.128038 77.7403 -0.376748 105.858 19.6014 121.483C21.5707 123.017 22.04 124.387 21.4925 126.866C18.9544 138.343 26.2205 149.145 37.5177 150.566C40.8663 150.999 41.7835 152.412 41.9826 155.537C42.8571 168.158 54.7444 177.838 67.3 176.46C79.8557 175.083 88.4299 165.544 88.4797 152.313C88.5508 131.823 88.4939 111.355 88.501 90.9078ZM149.836 110.559C149.801 109.591 149.477 108.654 148.906 107.871C148.334 107.087 147.542 106.492 146.629 106.161C145.717 105.831 144.727 105.78 143.785 106.016C142.844 106.252 141.995 106.763 141.346 107.484C140.698 108.205 140.28 109.103 140.146 110.063C140.012 111.024 140.168 112.002 140.594 112.873C141.021 113.744 141.698 114.467 142.539 114.951C143.38 115.435 144.346 115.656 145.314 115.588C146.567 115.473 147.731 114.888 148.57 113.952C149.408 113.015 149.861 111.795 149.836 110.538V110.559ZM134.195 130.595C134.189 129.64 133.902 128.709 133.37 127.916C132.838 127.124 132.084 126.505 131.203 126.137C130.322 125.769 129.352 125.668 128.413 125.847C127.475 126.025 126.61 126.475 125.926 127.141C125.242 127.807 124.769 128.66 124.566 129.592C124.363 130.525 124.439 131.496 124.785 132.386C125.13 133.275 125.73 134.044 126.509 134.595C127.289 135.147 128.213 135.457 129.168 135.488C130.487 135.501 131.757 134.991 132.699 134.07C133.642 133.148 134.18 131.891 134.195 130.573V130.595ZM172.189 55.4538C173.479 55.4434 174.711 54.9217 175.616 54.0033C176.521 53.0849 177.023 51.8452 177.013 50.5568C177.002 49.2684 176.48 48.0369 175.561 47.1332C174.641 46.2295 173.4 45.7276 172.111 45.738C170.821 45.7484 169.588 46.2701 168.683 47.1885C167.779 48.1068 167.276 49.3466 167.287 50.6349C167.297 51.9233 167.819 53.1548 168.739 54.0585C169.658 54.9622 170.899 55.4641 172.189 55.4538ZM172.096 105.169C170.822 105.181 169.604 105.699 168.711 106.608C167.819 107.517 167.324 108.743 167.336 110.016C167.349 111.289 167.867 112.506 168.777 113.397C169.687 114.289 170.914 114.783 172.189 114.771C172.82 114.765 173.444 114.635 174.024 114.388C174.605 114.141 175.132 113.782 175.574 113.332C176.016 112.882 176.365 112.349 176.6 111.765C176.836 111.18 176.955 110.554 176.949 109.924C176.943 109.293 176.812 108.67 176.565 108.09C176.318 107.51 175.959 106.984 175.508 106.542C175.058 106.101 174.524 105.752 173.939 105.517C173.354 105.281 172.727 105.163 172.096 105.169ZM144.234 172.341C144.273 171.384 144.03 170.435 143.533 169.616C143.036 168.796 142.308 168.14 141.44 167.732C140.572 167.323 139.603 167.179 138.654 167.318C137.704 167.457 136.817 167.873 136.103 168.513C135.389 169.153 134.88 169.989 134.639 170.917C134.399 171.845 134.437 172.823 134.75 173.729C135.063 174.635 135.637 175.428 136.399 176.01C137.162 176.592 138.079 176.936 139.036 177C139.688 177.037 140.341 176.945 140.957 176.727C141.573 176.51 142.139 176.172 142.623 175.734C143.107 175.296 143.498 174.766 143.775 174.174C144.051 173.583 144.207 172.943 144.234 172.291V172.341ZM154.99 16.9387C155.006 15.6886 154.534 14.4815 153.674 13.5733C152.814 12.6651 151.634 12.1272 150.383 12.0738C149.077 12.012 147.799 12.4711 146.831 13.3501C145.863 14.229 145.284 15.456 145.222 16.7612C145.216 18.0115 145.692 19.2161 146.551 20.1256C147.41 21.0352 148.586 21.58 149.836 21.6475C150.488 21.6939 151.142 21.6072 151.76 21.3926C152.377 21.1781 152.944 20.8403 153.426 20.3997C153.909 19.9591 154.296 19.425 154.565 18.83C154.834 18.235 154.979 17.5915 154.99 16.9387ZM117.935 95.3608C119.2 95.3608 120.414 94.8587 121.308 93.965C122.203 93.0713 122.706 91.8592 122.706 90.5953C122.706 89.3314 122.203 88.1192 121.308 87.2255C120.414 86.3318 119.2 85.8297 117.935 85.8297C116.67 85.8297 115.456 86.3318 114.562 87.2255C113.667 88.1192 113.164 89.3314 113.164 90.5953C113.164 91.8592 113.667 93.0713 114.562 93.965C115.456 94.8587 116.67 95.3608 117.935 95.3608Z" fill="white"/>
<path d="M164.766 83.8765C163.465 83.8795 162.176 83.6234 160.975 83.123C159.774 82.6226 158.685 81.888 157.771 80.9622C156.858 80.0364 156.138 78.938 155.655 77.7312C155.171 76.5243 154.933 75.2333 154.955 73.9335C155.002 71.3212 156.076 68.8322 157.945 67.0048C159.814 65.1773 162.328 64.1583 164.944 64.168C167.507 64.2579 169.938 65.3228 171.741 67.1448C173.544 68.9667 174.581 71.408 174.642 73.969C174.632 76.5864 173.59 79.0946 171.741 80.9494C169.893 82.8042 167.386 83.856 164.766 83.8765ZM169.615 74.0685C169.618 73.4342 169.496 72.8057 169.255 72.2187C169.015 71.6317 168.661 71.0977 168.214 70.6473C167.767 70.1968 167.236 69.8387 166.65 69.5935C166.065 69.3482 165.437 69.2205 164.802 69.2177C164.167 69.2149 163.538 69.337 162.95 69.5771C162.362 69.8173 161.828 70.1706 161.377 70.6171C160.926 71.0636 160.568 71.5944 160.322 72.1793C160.076 72.7642 159.949 73.3916 159.946 74.0258C159.943 74.6601 160.065 75.2886 160.306 75.8756C160.546 76.4626 160.9 76.9966 161.347 77.447C161.794 77.8975 162.325 78.2556 162.911 78.5008C163.496 78.7461 164.124 78.8738 164.759 78.8766C165.394 78.8794 166.023 78.7573 166.611 78.5171C167.198 78.277 167.733 77.9236 168.184 77.4772C168.635 77.0307 168.993 76.4999 169.239 75.915C169.484 75.3301 169.612 74.7027 169.615 74.0685Z" fill="white"/>
<path d="M164.944 151.39C163.648 151.422 162.359 151.195 161.153 150.722C159.947 150.249 158.847 149.539 157.92 148.635C156.992 147.731 156.255 146.65 155.752 145.457C155.249 144.264 154.99 142.983 154.99 141.688C154.979 140.392 155.224 139.106 155.711 137.904C156.198 136.703 156.917 135.609 157.828 134.685C158.739 133.761 159.823 133.026 161.018 132.522C162.214 132.017 163.497 131.753 164.795 131.745C167.419 131.778 169.927 132.838 171.778 134.697C173.63 136.556 174.678 139.066 174.698 141.688C174.647 144.252 173.602 146.697 171.782 148.506C169.963 150.316 167.511 151.35 164.944 151.39ZM164.738 146.418C165.701 146.422 166.642 146.138 167.442 145.603C168.242 145.067 168.864 144.305 169.227 143.415C169.59 142.524 169.678 141.545 169.48 140.604C169.282 139.662 168.807 138.802 168.115 138.133C167.424 137.463 166.548 137.016 165.6 136.848C164.652 136.68 163.675 136.799 162.795 137.189C161.915 137.58 161.173 138.224 160.662 139.04C160.152 139.856 159.898 140.805 159.932 141.766C159.971 143.013 160.495 144.196 161.395 145.063C162.294 145.929 163.496 146.41 164.745 146.404L164.738 146.418Z" fill="white"/>
<path d="M69.4044 67.087C69.2765 69.3242 69.2907 71.5827 68.985 73.7915C67.9185 81.5186 60.7449 88.0597 53.2229 87.9958C52.0569 87.9958 50.898 86.6819 49.7391 85.9788C50.6847 85.0342 51.5165 83.4646 52.583 83.2515C60.6951 81.6962 64.1859 77.7118 64.2713 69.4378C64.2713 67.435 64.3139 65.4251 64.2713 63.4152C64.058 56.1071 59.8704 51.5049 52.6114 50.7165C50.6989 50.5106 48.3456 50.6597 48.6585 47.9538C48.9713 45.2479 51.5023 45.5746 53.4717 45.8231C62.3588 46.7748 68.5868 53.252 69.1911 62.1581C69.3049 63.7987 69.1911 65.4606 69.1911 67.1296L69.4044 67.087Z" fill="white"/>
<path d="M58.2423 113.485C54.4955 113.102 50.6349 113.173 47.0375 112.235C43.3032 111.21 39.9811 109.049 37.5325 106.052C35.0838 103.054 33.6299 99.37 33.3727 95.5099C33.2803 93.713 33.0883 91.4616 35.6194 91.6747C36.6076 91.7599 38.0366 93.6988 38.2286 94.9488C39.4657 103.13 44.8192 108.038 53.1162 108.145C57.0194 108.194 60.9368 108.145 64.8187 108.145C66.717 108.145 69.0276 107.932 69.1343 110.588C69.2409 113.379 66.9018 113.109 65.0107 113.13C62.764 113.13 60.5174 113.13 58.2707 113.13L58.2423 113.485Z" fill="white"/>
<path d="M13.4301 92.4276C13.6434 77.6054 26.0356 65.2263 39.7785 65.1127C40.98 65.1127 42.1958 66.597 43.4115 67.3996C42.3664 68.2589 41.4137 69.6936 40.262 69.8782C26.455 72.087 20.4829 78.1238 18.3002 92.1151C18.1296 93.2088 16.5157 94.0753 15.5701 95.0483L13.4301 92.4276Z" fill="white"/>
<path d="M79.6281 28.8277L77.2819 31.2495C76.3861 30.2339 74.9571 29.3391 74.694 28.1743C73.528 23.1176 70.6913 19.9926 66.2122 19.4173C64.2547 19.2006 62.2785 19.6046 60.5636 20.5721C58.8487 21.5395 57.4819 23.0214 56.6568 24.8079C56.1378 25.9797 56.1947 27.4215 55.5833 28.5223C54.9718 29.6232 53.8841 30.3192 53.0025 31.2495C52.2417 30.1061 50.8127 28.9555 50.8269 27.8192C50.8909 20.5963 57.6877 14.3251 65.1529 14.3677C72.618 14.4103 79.4077 20.6886 79.6281 28.8277Z" fill="white"/>
<path d="M53.2086 125.048L55.6757 122.477C56.5288 123.684 57.9792 124.813 58.1356 126.113C59.2874 135.296 65.1386 141.397 74.3954 142.611C76.3079 142.86 78.6043 142.725 78.1706 145.53C77.7725 148.158 75.4974 147.775 73.6276 147.555C68.0736 146.907 62.9432 144.27 59.1882 140.131C55.4332 135.992 53.3087 130.633 53.2086 125.048Z" fill="white"/>
<path d="M65.6719 168.669C57.0905 168.236 50.4856 161.695 50.3221 154.309C50.3221 153.123 51.5521 151.908 52.2133 150.708C53.2086 151.752 54.8154 152.661 55.0572 153.868C56.4791 160.047 58.7471 162.341 65.0107 163.762C66.1909 164.024 67.1009 165.466 68.1318 166.361L65.6719 168.669Z" fill="white"/>
<path d="M29.1496 128.755C29.5051 128.343 30.4009 126.383 31.5882 126.191C33.8846 125.815 34.1406 127.825 34.1548 129.785C34.1903 133.634 36.1881 136.006 39.8425 137.398C41.0014 137.839 41.6626 139.529 42.5513 140.687C41.1293 141.148 39.6434 142.214 38.385 141.972C33.131 140.964 29.1496 135.595 29.1496 128.755Z" fill="white"/>
</g>
<defs>
<clipPath id="clip0_46_96">
<rect width="182" height="182" fill="white"/>
</clipPath>
</defs>
</svg>
