<svg width="48" height="48" viewBox="0 0 48 48" fill="none" xmlns="http://www.w3.org/2000/svg">
<path d="M18.6034 24.3034C15.3639 22.6466 12.6374 20.4693 10.5623 17.5291C9.12979 15.5025 8.62768 13.2696 8.98762 10.7458H11.7214C11.4748 9.83755 11.2678 9.0298 11.0285 8.23282C10.9871 8.09461 10.8071 7.89896 10.6865 7.89716C9.14239 7.87383 7.59645 7.87383 6.01992 7.87383C6.01992 9.40854 6.05771 10.8158 6.01992 12.2177C5.93174 14.6427 6.65521 16.8165 7.94379 18.8233C9.74349 21.6217 12.1605 23.7846 14.9086 25.6047C17.0412 27.0228 19.3233 28.1375 21.9022 28.6957V32.616L26.1621 32.2678V28.7693C26.2556 28.7025 26.3564 28.6465 26.4626 28.6024C30.9259 27.5254 34.4803 24.9747 37.7179 21.8496C41.7295 17.9778 42.6113 13.2032 41.8572 7.87024C40.4463 7.87024 38.9777 7.85767 37.5182 7.88639C37.4114 7.90134 37.3098 7.94178 37.2221 8.00429C37.1344 8.06679 37.0631 8.1495 37.0142 8.24539C36.7569 9.03698 36.5607 9.84652 36.316 10.7584H39.0461C39.3916 13.3557 38.9975 15.2459 37.6063 17.3191C35.5943 20.3418 32.821 22.5479 29.6805 24.3231C29.6283 24.3536 29.5329 24.307 29.2864 24.2693C33.5408 18.7174 34.8474 12.4923 33.9206 5.70907C27.3556 4.76127 20.6878 4.76489 14.1239 5.71984C13.1935 12.5516 14.5199 18.7479 18.6034 24.3034ZM15.4197 43H32.623C32.6986 41.7561 32.5798 41.074 31.9247 40.6665C31.2336 40.2339 31.0249 39.6111 30.8035 38.9272C30.5785 38.1226 30.3026 37.333 29.9774 36.5632C29.7849 36.1503 29.4249 35.6926 29.0254 35.5167C25.6996 34.052 22.3395 34.061 19.0137 35.5167C18.5844 35.7461 18.2484 36.1174 18.0635 36.5668C17.6441 37.554 17.3652 38.5987 16.9981 39.6075C16.9027 39.8713 16.7497 40.1873 16.5283 40.3255C15.5151 40.9429 15.2739 41.853 15.4197 43Z" fill="white"/>
<path d="M18.603 24.3034C14.5195 18.7479 13.1931 12.5516 14.1236 5.71983C20.6874 4.76429 27.3552 4.76005 33.9202 5.70726C34.847 12.4905 33.5459 18.7156 29.286 24.2675C29.5325 24.3052 29.6279 24.3518 29.6801 24.3213C32.8242 22.5461 35.5939 20.34 37.6186 17.3083C39.0025 15.2351 39.3967 13.3449 39.0583 10.7476H36.321C36.5657 9.84113 36.7619 9.03158 37.0193 8.23461C37.0681 8.13872 37.1394 8.05601 37.2271 7.99351C37.3148 7.931 37.4164 7.89056 37.5232 7.87561C38.9881 7.84689 40.4513 7.85946 41.8622 7.85946C42.6109 13.1924 41.7291 17.9671 37.723 21.8388C34.4835 24.9639 30.9309 27.5182 26.4677 28.5916C26.3614 28.6357 26.2606 28.6917 26.1671 28.7585V32.2677L21.9072 32.6142V28.6957C19.3193 28.1393 17.0481 27.0246 14.9136 25.6137C12.1601 23.7918 9.73591 21.6288 7.94342 18.8233C6.65483 16.8165 5.93136 14.6427 6.00515 12.2213C6.05734 10.8194 6.01954 9.41212 6.01954 7.87382C7.59607 7.87382 9.14201 7.87382 10.6861 7.88818C10.8067 7.88818 10.9867 8.08562 11.0281 8.22384C11.2674 9.02081 11.4744 9.82856 11.721 10.7368H8.98724C8.6273 13.266 9.12941 15.4989 10.562 17.5255C12.637 20.4693 15.3636 22.6466 18.603 24.3034Z" fill="white"/>
<path d="M15.4195 43C15.2738 41.853 15.5149 40.943 16.5299 40.3219C16.7513 40.1873 16.9043 39.8714 16.9997 39.6039C17.3596 38.5951 17.6457 37.5504 18.0651 36.5632C18.2503 36.1154 18.5855 35.7456 19.0135 35.5167C22.3394 34.0592 25.6994 34.0502 29.0252 35.5167C29.4247 35.6962 29.7847 36.1504 29.9773 36.5632C30.3024 37.333 30.5783 38.1226 30.8033 38.9272C31.0193 39.6111 31.2334 40.234 31.9245 40.6665C32.5796 41.0758 32.6984 41.7579 32.6228 43H15.4195Z" fill="white"/>
</svg>
