<svg width="302" height="136" viewBox="0 0 302 136" fill="none" xmlns="http://www.w3.org/2000/svg">
<path d="M63.048 9.53877C85.6929 9.53877 113.246 4.50428 134.852 10.5211C134.426 16.197 135.776 21.8674 138.762 26.9402C139.638 18.1693 136.99 13.9242 146.908 11.1526C154.524 9.08268 164.299 11.2929 171.956 9.78435C171.84 12.5593 172.593 15.3099 174.135 17.7483C183.421 8.8371 188.227 10.065 202.359 9.50368C211.36 9.13531 222.724 6.85488 231.643 8.6266C240.237 10.3808 236.551 11.1 241.092 16.9063C250.541 9.4686 253.861 8.76693 269.317 8.76693C278.114 8.76693 288.154 11.6262 284.04 20.3445C289.6 20.2392 295.057 19.3271 300.739 19.7832C299.11 24.5019 298.702 33.0974 300.739 37.9389C291.779 40.079 281.393 42.6401 272.066 42.3068C277.89 43.9031 293.632 42.2015 298.132 46.3063C302.633 50.4111 298.784 60.9186 298.804 66.0408C298.804 74.4784 301.798 80.5303 300.841 89.1082C300.006 96.5635 298.947 104.896 300.678 112.018C297.503 112.956 294.229 113.626 290.903 114.018C301.635 115.526 298.051 121.42 297.745 128.051C264.816 129.209 232.437 134.226 199.142 133.12C198.551 131.051 196.495 129.981 195.965 129.033C190.161 138.576 165.948 134.138 155.807 133.173C148.72 132.507 148.903 134.348 143.446 127.911C138.884 122.42 134.221 116.386 129.883 110.737C131.024 117.754 138.151 127.016 136.909 133.945C126.197 136.471 108.908 134.559 97.5856 134.576C90.9265 134.576 84.0027 134.419 77.2214 134.12C67.2633 133.682 61.3781 127.735 52.092 127.455C40.1586 127.104 16.8416 137.98 5.07108 132.471C-2.91169 128.7 4.80635 129.209 5.21363 125.876C5.92638 120.21 3.82886 114.474 3.17721 109.036C6.24031 107.843 9.57028 107.244 12.9317 107.281C-8.22674 105.247 2.91248 85.5472 3.58449 71.9173C4.23615 58.6031 -1.97493 41.6753 3.13648 28.9224C5.98747 21.7829 6.94459 25.0281 14.7237 20.4848C-0.590166 14.2224 34.0697 12.8892 38.7535 12.9068C42.8263 20.9234 44.6794 30.2907 46.0031 38.9212C46.2882 30.6064 46.5326 22.4495 50.1981 14.661C57.3256 15.0118 58.3438 10.2755 62.9869 8.69676C62.8647 9.99485 62.213 11.1 63.048 9.53877Z" fill="#9E8042"/>
<path d="M300.739 12.205V19.783L282.391 28.4662L291.575 17.5201L300.739 12.205Z" fill="#9E8042"/>
<path d="M282.391 83.9858L300.719 104.44V112.018L285.893 103.755L279.397 89.0203L282.391 83.9858Z" fill="#9E8042"/>
<path d="M109.01 100.808L136.766 121.946L136.909 133.857L121.005 127.595L113.001 117.333L109.01 100.808Z" fill="#9E8042"/>
<path d="M29.0601 107.527L22.7472 117.333L13.5833 131.507L1.75171 129.174V121.595L29.0601 107.527Z" fill="#9E8042"/>
<path d="M295.729 24.8527L300.78 30.3783V37.9388L294.528 34.8339L293.978 31.3256L295.729 24.8527Z" fill="#9E8042"/>
<path d="M63.048 1.9606C85.6929 1.9606 113.246 -3.05634 134.852 2.96048C134.428 8.63621 135.778 14.3062 138.762 19.3796C139.638 10.521 136.99 6.36358 146.908 3.59199C154.524 1.52206 164.299 3.73232 171.956 2.22373C171.836 4.99897 172.589 7.75051 174.135 10.1877C183.421 1.27647 188.227 2.5044 202.359 1.94306C211.36 1.57468 222.724 -0.705747 231.643 1.06597C240.237 2.82015 236.551 3.5569 241.092 9.34568C250.541 1.90798 253.861 1.17122 269.317 1.18876C278.114 1.18876 288.154 4.04807 284.04 12.7839C289.6 12.6611 295.057 11.7664 300.739 12.205C299.11 16.9237 298.702 25.5192 300.739 30.3783C291.779 32.5184 281.393 35.0619 272.066 34.7286C277.89 36.3425 293.632 34.6234 298.132 38.7281C302.633 42.8329 298.784 53.358 298.804 58.4626C298.804 66.9178 301.798 72.9697 300.841 81.5301C300.006 89.0028 298.947 97.3176 300.678 104.44C297.492 105.388 294.204 106.058 290.862 106.439C301.594 107.965 298.01 113.86 297.705 120.473C264.776 121.631 232.397 126.647 199.101 125.542C198.511 123.472 196.454 122.402 195.924 121.438C190.121 130.98 165.908 126.56 155.766 125.595C148.679 124.928 148.863 126.788 143.405 120.332C138.844 114.859 134.18 108.825 129.843 103.159C130.983 110.176 138.11 119.455 136.868 126.384C126.157 128.893 108.867 126.998 97.5449 126.998C90.8858 126.998 83.962 126.84 77.1807 126.542C67.2226 126.104 61.3374 120.157 52.0513 119.894C40.1179 119.543 16.8009 130.419 5.03036 124.911C-2.95241 121.122 4.76562 121.631 5.17291 118.298C5.88566 112.632 3.78814 106.895 3.13649 101.475C6.19644 100.274 9.52859 99.6744 12.8909 99.7209C-8.28783 97.9667 2.85139 78.1445 3.52341 64.4268C4.23616 51.0249 -1.97492 34.1147 3.13649 21.3618C5.98748 14.2048 6.94459 17.5377 14.7237 12.9242C-0.59016 6.64425 34.0697 5.25845 38.7535 5.25845C42.8263 13.275 44.6795 22.6423 46.0031 31.2904C46.2882 22.9581 46.5326 14.8012 50.1982 7.03017C57.3256 7.36347 58.3438 2.64473 62.9869 1.04843C62.8647 2.41669 62.213 3.50428 63.048 1.9606Z" fill="#CEA756"/>
<path d="M213.112 34.2551C195.68 38.1493 179.775 46.0958 163.484 52.3933C154.085 55.7744 144.379 58.4849 134.465 60.4976C128.071 61.9535 122.43 63.8831 118.174 68.1808C118.076 68.2653 118.006 68.3701 117.97 68.4851C117.934 68.6 117.934 68.721 117.969 68.8361C118.004 68.9513 118.073 69.0566 118.17 69.1416C118.266 69.2266 118.387 69.2885 118.52 69.3211C137.092 72.5838 156.194 67.5669 173.707 75.1449C179.816 77.8288 185.681 81.6003 192.686 82.6528C200.832 83.8807 209.324 81.267 217.633 81.4775C238.384 82.0038 257.404 90.2484 276.281 96.6687C284.164 99.5778 292.292 101.965 300.596 103.808C300.474 103.305 300.372 102.779 300.291 102.229C288.5 100.054 276.485 95.318 267.016 92.0903C251.213 86.7225 234.881 81.1091 217.633 80.618C206.208 80.2847 195.782 83.7053 184.826 79.3199C179.327 77.1271 174.399 74.0573 168.657 72.3032C161.224 70.0052 153.343 69.8824 145.503 69.8649C141.002 69.8649 136.481 70.0227 131.96 69.8649C128.694 69.7138 125.446 69.3443 122.247 68.7597C120.617 67.6721 120.943 66.8652 123.244 66.3214C127.826 61.6553 139.699 60.8835 146.276 59.1468C153.471 57.1972 160.541 54.9194 167.455 52.3231C184.378 46.008 200.69 38.0792 218.753 34.22C236.429 30.4485 254.919 30.2029 272.881 27.9225C281.82 26.7823 290.597 24.9755 299.354 23.3967C299.354 23.0459 299.354 22.6775 299.354 22.3267C291.025 23.7651 282.696 25.3789 274.245 26.5191C253.86 29.2732 233.191 29.817 213.112 34.2551Z" fill="#B08F49"/>
<path d="M143.303 63.3218C142.346 63.4942 141.363 63.5357 140.391 63.4446C140.126 63.4446 139.984 63.7603 140.269 63.7954C141.312 64.002 142.402 63.941 143.405 63.62C143.432 63.6175 143.457 63.6099 143.48 63.5979C143.503 63.586 143.523 63.5698 143.538 63.5506C143.552 63.5314 143.562 63.5096 143.566 63.4868C143.57 63.4639 143.568 63.4406 143.561 63.4185C143.553 63.3964 143.54 63.3759 143.522 63.3586C143.505 63.3413 143.483 63.3275 143.458 63.3183C143.434 63.3091 143.407 63.3046 143.38 63.3052C143.354 63.3058 143.327 63.3115 143.303 63.3218Z" fill="#B08F49"/>
<path d="M262.76 31.3781C253.433 32.5534 244.228 32.2903 234.881 32.8517C205.475 34.6058 182.097 51.0951 155.461 59.866C182.464 51.0951 206.717 34.9391 236.51 33.7463C250.303 33.3828 264.049 32.1812 277.646 30.1502C284.984 28.9525 292.406 28.1731 299.863 27.8172C299.741 27.2734 299.619 26.7296 299.537 26.063C294.569 26.4138 289.579 26.9927 284.57 27.8172C277.422 29.0275 270.172 30.4484 262.76 31.3781Z" fill="#B08F49"/>
<path d="M152.447 63.5147C153.037 63.3042 152.773 62.4622 152.162 62.6727C151.814 62.7626 151.508 62.9469 151.291 63.1981C151.074 63.4493 150.957 63.7541 150.957 64.0672C150.957 64.3804 151.074 64.6851 151.291 64.9364C151.508 65.1876 151.814 65.3718 152.162 65.4618C154.027 65.8626 155.97 65.9224 157.864 65.6372C160.007 65.5537 162.139 65.3191 164.238 64.9356C164.238 64.9356 164.238 64.8303 164.238 64.8478C162.286 65.1581 160.314 65.3632 158.332 65.4618C157.579 65.4618 156.805 65.4618 156.051 65.4618H155.135C153.791 65.5495 152.793 64.9005 152.447 63.5147Z" fill="#B08F49"/>
<path d="M218.712 74.9694C204.457 76.4956 185.987 79.2672 176.864 66.8125C181.344 73.5135 188.43 76.7236 197.452 77.4428C214.028 78.7584 229.383 72.6013 245.878 77.4428C263.92 82.7053 281.23 92.634 299.823 96.0195C299.823 95.5985 299.823 95.16 299.823 94.7214C282.411 91.599 266.425 83.0913 249.258 77.4428C238.852 74.0046 229.729 73.7766 218.712 74.9694Z" fill="#B08F49"/>
<path d="M254.797 70.1631C246.536 67.1537 237.54 65.9485 228.609 66.6548C215.922 67.8125 196.82 79.7936 187.27 67.1635H187.127C190.67 72.3383 197.105 73.8118 203.907 73.0049C212.521 71.9875 219.852 67.7424 228.69 67.0407C237.491 66.6639 246.27 68.0887 254.308 71.1981C268.095 76.1273 279.071 81.7231 294.141 83.8632L300.515 84.793L300.637 83.6878C296.87 83.1616 293.143 82.5476 289.498 81.9336C276.791 79.7585 266.568 74.3205 254.797 70.1631Z" fill="#B08F49"/>
<path d="M259.338 34.6409C230.829 37.2195 203.357 46.464 177.291 56.2348C177.169 56.2348 177.291 56.4102 177.291 56.3751C205.923 46.0781 234.942 36.6406 266.385 35.325C268.991 35.2022 271.618 35.1671 274.245 35.1145C273.494 35.0317 272.751 34.8968 272.025 34.7111C276.124 34.7958 280.221 34.4958 284.244 33.8164C275.931 33.6907 267.616 33.966 259.338 34.6409Z" fill="#B08F49"/>
<path d="M259.664 39.4825C235.381 42.0739 211.834 48.3954 190.141 58.1469C214.578 48.5516 239.585 41.7103 266.527 40.0789C277.57 39.3705 288.668 39.6645 299.639 40.956C299.465 40.483 299.225 40.0296 298.927 39.6053L297.644 39.4474C285.025 38.1887 272.28 38.2005 259.664 39.4825Z" fill="#B08F49"/>
<path d="M239.809 50.4109C228.152 52.9652 216.691 56.1465 205.496 59.9361C202.278 61.0938 195.823 62.8831 196.82 66.637C196.843 66.7086 196.886 66.7738 196.947 66.8262C197.008 66.8785 197.084 66.9162 197.167 66.9353C205.17 68.9175 214.639 65.988 222.113 63.8128C228.792 61.8481 235.512 59.4098 242.66 59.0765C251.213 58.6731 258.361 61.5675 265.835 64.6899C276.811 69.2859 288.765 73.9695 300.983 75.9868C300.983 75.3728 300.882 74.7589 300.82 74.2326C288.704 72.2153 277.116 67.7246 265.122 62.9533C248.831 56.4804 236.877 59.0239 220.443 63.6725C216.157 64.9931 211.73 65.945 207.227 66.5142C202.848 66.9879 201.382 68.1281 202.217 64.2689C203.113 60.1466 207.552 60.0063 211.564 58.7959C220.911 55.9716 230.564 53.6561 240.074 51.3582C260.316 46.4465 279.886 44.0257 300.352 46.3061C300.352 45.8851 300.352 45.4641 300.352 45.0607C280.293 41.8681 259.155 45.7799 239.809 50.4109Z" fill="#B08F49"/>
<path d="M278.888 50.2706C274.103 50.1654 265.224 48.4287 262.597 52.7615C262.536 52.86 262.513 52.9725 262.532 53.0828C262.55 53.1932 262.608 53.2956 262.699 53.3755C269.908 60.2168 280.599 62.2516 290.577 64.3391C293.836 65.1101 296.945 66.2924 299.802 67.8475C299.7 67.2335 299.599 66.6195 299.517 65.988C297.749 65.1228 295.878 64.423 293.937 63.9006C286.484 61.9534 275.609 62.2341 270.07 56.8839C266.222 55.8313 266.16 53.9719 269.846 51.3056C272.249 51.2179 274.632 51.2003 277.035 51.2179C280.619 51.2179 284.224 51.3757 287.808 51.4985C291.88 51.6389 295.75 51.7266 299.68 51.6389C299.68 51.3231 299.782 50.9898 299.843 50.639C292.899 50.6741 285.914 50.3934 278.888 50.2706Z" fill="#B08F49"/>
<path d="M280.395 56.1297C279.703 59.1995 289.803 61.1466 299.069 62.3395C299.069 61.9711 299.069 61.6202 298.967 61.2519C291.107 60.0941 283.124 58.568 283.327 56.9366C282.615 55.5859 283.327 55.3578 285.547 56.2525C286.789 56.3928 288.011 56.498 289.253 56.5682C291.738 56.7436 294.222 56.8664 296.707 56.9191H298.947L299.069 55.9367C295.383 55.9367 291.697 55.7262 288.011 55.428C286.626 55.235 280.925 53.6738 280.395 56.1297Z" fill="#B08F49"/>
<path d="M288.643 19.6076L292.715 18.8357C293.224 18.748 293 18.0639 292.491 18.1867L288.52 19.0989C288.072 19.1866 288.235 19.6778 288.643 19.6076Z" fill="#B08F49"/>
<path d="M266.934 22.8003L271.598 21.9758C271.761 21.9758 271.598 21.7478 271.598 21.7828L266.833 22.8003C266.833 22.8003 266.833 22.8003 266.934 22.8003Z" fill="#B08F49"/>
<path d="M234.25 95.6688C216.248 89.0906 196.25 95.125 178.696 88.1609C164.441 82.4773 154.056 75.3905 137.622 74.3204C129.227 73.952 120.813 74.0399 112.431 74.5836C107.91 74.7765 103.389 74.987 98.8685 75.0046C95.203 75.0046 86.4871 75.7939 83.4732 74.0398C72.0285 67.4265 90.8654 63.4094 93.8386 62.4446L108.684 57.6733C117.875 54.7263 127.046 51.7559 136.196 48.7621C154.247 42.5457 172.792 37.4514 191.689 33.5183C212.725 29.4661 234.27 27.4313 255.653 25.2386C255.815 25.2386 255.815 25.0105 255.653 25.0281C220.932 28.0803 186.414 31.8167 153.322 41.8682C136.339 47.0254 119.559 52.709 102.738 58.2522C95.203 60.7431 85.4078 62.6025 78.5654 66.2161C77.3029 66.8827 75.5515 67.4265 75.4293 68.9527C74.8795 76.2851 94.8568 75.6185 98.8685 75.6185C115.465 75.6185 132.469 73.0048 148.842 76.3904C164.299 79.583 175.316 90.4238 191.424 92.1779C199.142 93.02 206.941 92.1779 214.68 92.5463C223.746 93.0897 232.558 95.3605 240.481 99.1947C254.736 105.931 266.955 115.491 282.106 121.104C282.251 121.165 282.401 121.217 282.554 121.262L285.73 121.069C280.297 119.308 275.068 117.111 270.111 114.509C258.178 108.229 247.242 100.405 234.25 95.6688Z" fill="#B08F49"/>
<path d="M276.607 13.8714C279.198 13.5136 281.751 12.9798 284.244 12.2751C284.244 12.0646 284.407 11.8717 284.468 11.6787C281.882 12.3979 279.234 13.0119 276.485 13.5381C276.22 13.5732 276.343 13.9241 276.607 13.8714Z" fill="#B08F49"/>
<path d="M267.566 15.1696L264.898 15.4327V15.5204L267.566 15.1696Z" fill="#B08F49"/>
<path d="M68.6889 82.3194C68.7294 82.3194 68.7683 82.3055 68.7969 82.2808C68.8256 82.2562 68.8417 82.2227 68.8417 82.1878C68.8417 82.1529 68.8256 82.1194 68.7969 82.0948C68.7683 82.0701 68.7294 82.0562 68.6889 82.0562C63.3837 82.0596 58.0819 81.8254 52.8049 81.3546C50.2057 81.1277 47.6317 80.723 45.1072 80.1442C38.8554 78.5479 37.8779 78.8987 38.4277 72.8293C38.9368 67.2685 39.4663 67.3562 44.537 64.953C46.4309 64.0408 48.3858 63.1988 50.3612 62.3744C55.7577 60.1466 61.3375 58.2696 66.9376 56.4277C86.9149 49.7969 107.035 43.096 128.03 38.8859C148.007 34.8689 168.759 34.4654 188.675 30.4834C210.627 26.1155 231.073 17.5552 254.044 17.3622V17.2219C227.428 16.8359 203.5 28.0627 177.719 31.571C164.034 33.4129 150.227 34.2023 136.624 36.5178C122.804 39.0032 109.196 42.297 95.8955 46.3763C83.4937 50.0601 71.0919 53.9543 58.9549 58.1994C51.3183 60.8658 38.1426 64.3566 33.5403 70.4787C24.7226 82.1966 62.4779 82.4422 68.6889 82.3194Z" fill="#B08F49"/>
<path d="M151.042 90.1255C156.194 91.2482 161.224 92.5287 166.335 93.932L164.788 93.476C160.226 92.213 155.644 91.1078 151.042 90.1255Z" fill="#B08F49"/>
<path d="M199.997 105.246C189.012 100.995 177.776 97.242 166.335 94.0022C180.122 98.0193 192.666 104.194 206.31 108.351C212.419 110.228 218.936 110.684 225.33 111.86C233.305 113.261 240.643 116.611 246.468 121.508C247.425 122.262 248.342 123.016 249.258 123.788L251.763 123.595C248.224 120.599 244.365 117.898 240.237 115.526C228.283 108.965 212.949 110.141 199.997 105.246Z" fill="#B08F49"/>
<path d="M117.298 85.1086C128.673 86.0709 139.951 87.7477 151.042 90.1256C139.968 87.664 128.684 85.9629 117.298 85.0385V85.1086Z" fill="#B08F49"/>
<path d="M60.9097 43.4995C73.8089 39.8555 87.0366 37.1389 100.457 35.3777C114.712 33.6235 129.089 33.0797 143.222 30.694C156.723 28.3961 169.369 23.8177 182.525 20.5549C198.205 16.6782 214.313 15.8186 230.442 14.1522C246.57 12.4857 262.923 9.38079 276.343 1.87291L275.263 1.75012C255.449 12.7137 229.22 13.0646 206.025 15.6783C190.324 17.4325 175.866 21.4495 160.837 25.4666C145.156 29.6766 129.476 31.3606 113.185 32.8692C87.0177 35.33 61.4001 41.0313 37.1243 49.797C25.5989 53.6675 14.3988 58.2217 3.60486 63.427C3.60486 63.6901 3.60486 63.9883 3.60486 64.2514C3.60486 64.5146 3.60486 64.7426 3.60486 64.9706C9.00137 62.2166 14.9274 59.9537 20.1813 57.7785C33.3756 52.2476 46.9817 47.4774 60.9097 43.4995Z" fill="#B08F49"/>
<path d="M80.1539 98.9315C90.947 98.9315 101.618 97.1773 112.39 96.809C135.28 95.9319 157.945 104.79 179.45 110.456C189.469 113.088 199.814 115.561 208.754 120.175C211.951 121.824 214.985 123.683 217.979 125.577H220.423C217.327 123.56 214.191 121.595 210.892 119.841C203.296 116.04 195.165 113.092 186.699 111.07C166.335 105.615 144.464 97.7387 123.102 96.2301C112.309 95.4758 101.597 97.0896 90.8859 97.9843C78.8302 98.7479 66.7115 97.7455 55.0449 95.0197C45.7197 92.8009 36.1754 91.3328 26.535 90.6343C17.7173 90.1957 8.94032 90.3361 0.183716 89.687V90.1431C17.2489 92.0201 34.477 91.2131 51.3793 94.8267C60.8894 96.8616 70.2773 98.8789 80.1539 98.9315Z" fill="#B08F49"/>
<path d="M135.931 110.913C142.127 111.72 148.25 112.892 154.259 114.421C164.388 117.048 173.771 121.463 181.812 127.384C182.789 127.384 183.726 127.226 184.643 127.104C171.121 117.087 153.546 112.544 135.402 110.228C135.585 110.509 135.769 110.684 135.931 110.913Z" fill="#B08F49"/>
<path d="M3.72705 104.598L3.84924 105.299C15.1583 107.822 26.7864 109.13 38.4684 109.193C57.7736 109.193 76.8956 107.597 96.2416 108.229C108.094 108.615 120.332 109.053 132.307 110.439C132.307 110.228 132.144 110.035 132.042 109.825C125.77 109.106 119.436 108.632 113.185 108.264C76.5698 106.124 39.4866 111.667 3.72705 104.598Z" fill="#B08F49"/>
<path d="M5.3562 116.508C5.3562 116.701 5.3562 116.877 5.3562 117.052C24.9669 120.385 45.2089 117.666 65.2677 116.736C79.767 116.052 94.1237 116.736 107.89 120.911C113.999 122.771 119.701 125.209 125.505 127.542C126.706 127.542 127.867 127.542 129.028 127.367C111.596 120.753 94.6329 115.351 74.4927 115.526C51.2571 115.772 28.103 119.964 5.3562 116.508Z" fill="#B08F49"/>
<path d="M104.632 27.0278C125.647 23.8527 145.604 24.4316 165.521 17.1342C179.653 11.9594 193.521 6.5741 207.552 1.62732C206.025 1.76765 204.538 1.89045 203.113 1.96061C192.442 5.71455 181.934 9.78424 171.385 14.0293C158.669 19.3459 144.952 22.6608 130.881 23.8177C120.118 24.4952 109.405 25.6663 98.7871 27.326C67.4466 32.4833 31.687 38.886 3.07532 53.0598L3.2586 54.814C15.9464 48.7382 29.2604 43.6879 43.0299 39.728C63.2022 34.2853 83.7845 30.0419 104.632 27.0278Z" fill="#B08F49"/>
<path d="M136.787 15.4678C136.665 15.1871 136.563 14.8889 136.461 14.5907C116.748 18.6779 95.7325 16.4677 75.633 18.6779C65.7691 19.7722 56.0097 21.4782 46.4308 23.7826C46.4308 24.0633 46.4308 24.3439 46.4308 24.6421C60.6954 20.9637 75.4381 18.8363 90.3156 18.3096C106.505 17.7482 121.595 18.3973 136.787 15.4678Z" fill="#B08F49"/>
<path d="M172.078 3.39909C172.078 3.06579 172.078 2.7325 172.078 2.41675C163.136 6.16615 153.981 9.5267 144.647 12.4857C142.794 13.0646 140.9 13.5558 139.006 14.0119C139.006 14.3451 139.006 14.6784 139.006 15.0293C142.874 14.194 146.665 13.1152 150.349 11.8016C157.68 9.18787 165.012 6.36365 172.078 3.39909Z" fill="#B08F49"/>
<path d="M44.8628 24.186C29.7095 27.9333 15.1331 33.2338 1.44629 39.9736C1.44629 40.4999 1.44629 41.0437 1.6092 41.5699C15.2777 34.6331 29.8423 29.099 45.0053 25.0807C44.8628 24.7298 44.8628 24.4492 44.8628 24.186Z" fill="#B08F49"/>
<path d="M112.737 7.66174C118.121 6.20496 123.247 4.11534 127.969 1.45196L125.627 1.06604C118.595 5.03845 110.672 7.6921 102.371 8.85458C86.0799 11.0824 69.5238 11.2578 53.2324 13.012L47.9581 13.6084C47.9581 13.8364 47.8563 14.082 47.7952 14.3101C55.4793 13.3979 63.1905 12.6319 70.9289 12.0121C84.7155 10.8894 99.398 11.1526 112.737 7.66174Z" fill="#B08F49"/>
<path d="M42.419 14.2925C29.1443 15.97 16.0092 18.3841 3.09571 21.5197C3.09571 21.7302 2.95316 21.9407 2.8717 22.1512C15.934 19.0387 29.2105 16.6366 42.6226 14.9591C42.5615 14.731 42.4801 14.5205 42.419 14.2925Z" fill="#B08F49"/>
<path d="M39.7513 7.3108L39.2015 6.15305C36.493 5.99517 33.7846 5.81975 31.0558 5.60925C28.8972 5.74959 26.5146 5.925 24.1523 6.17059C28.775 6.38109 33.3773 6.90734 38.0611 7.20555L39.7513 7.3108Z" fill="#B08F49"/>
<path d="M77.3029 5.80225C83.9223 4.58394 90.3682 2.7488 96.5267 0.329224L91.7004 0.59235C84.7566 3.05606 77.4857 4.77063 70.0533 5.697C64.8734 6.27434 59.6569 6.57313 54.4339 6.59163C53.0988 7.01024 51.6768 7.18353 50.2593 7.10035C50.1656 7.30125 50.084 7.50617 50.0149 7.71431C59.1652 7.95662 68.3183 7.31527 77.3029 5.80225Z" fill="#B08F49"/>
<g filter="url(#filter0_d_44_745)">
<path d="M36.2893 47.1686H46.4763L48.6723 60.4056V81.8776H38.4853V58.8806L36.2893 47.1686ZM61.0553 46.2536C64.146 46.2536 66.7893 46.9246 68.9853 48.2666C71.1813 49.5679 72.8486 51.4386 73.9873 53.8786C75.1666 56.3186 75.7563 59.2263 75.7563 62.6016V81.8776H65.5693V64.1266C65.5693 60.9953 64.878 58.6366 63.4953 57.0506C62.1533 55.4239 60.181 54.6106 57.5783 54.6106C55.7483 54.6106 54.1623 55.0579 52.8203 55.9526C51.4783 56.8066 50.4413 58.0063 49.7093 59.5516C49.018 61.0969 48.6723 62.9473 48.6723 65.1026L45.3173 63.3336C45.724 59.6736 46.6593 56.5829 48.1233 54.0616C49.5873 51.5403 51.4173 49.6086 53.6133 48.2666C55.85 46.9246 58.3306 46.2536 61.0553 46.2536ZM88.0783 46.2536C91.169 46.2536 93.8123 46.9246 96.0083 48.2666C98.245 49.5679 99.9326 51.4386 101.071 53.8786C102.251 56.3186 102.84 59.2263 102.84 62.6016V81.8776H92.6533V64.1266C92.6533 60.9953 91.962 58.6366 90.5793 57.0506C89.2373 55.4239 87.265 54.6106 84.6623 54.6106C82.8323 54.6106 81.2463 55.0579 79.9043 55.9526C78.5623 56.8066 77.5253 58.0063 76.7933 59.5516C76.102 61.0969 75.7563 62.9473 75.7563 65.1026L72.4013 63.3336C72.808 59.6736 73.7433 56.5829 75.2073 54.0616C76.6713 51.5403 78.5013 49.6086 80.6973 48.2666C82.934 46.9246 85.3943 46.2536 88.0783 46.2536Z" fill="white"/>
<path d="M109.65 56.3796H124.717V64.6146H109.65V56.3796Z" fill="white"/>
<path d="M132.057 34.9076H142.244V58.2096L140.841 60.9546V68.5186L142.244 71.3246V81.8776H132.057V34.9076ZM138.645 64.5536C139.296 60.8529 140.496 57.6403 142.244 54.9156C143.993 52.1503 146.169 50.0153 148.771 48.5106C151.374 47.0059 154.302 46.2536 157.555 46.2536C160.931 46.2536 163.92 47.0263 166.522 48.5716C169.125 50.0763 171.158 52.2113 172.622 54.9766C174.086 57.7013 174.818 60.8936 174.818 64.5536C174.818 68.1729 174.086 71.3653 172.622 74.1306C171.158 76.8553 169.125 78.9903 166.522 80.5356C163.92 82.0403 160.931 82.7926 157.555 82.7926C154.302 82.7926 151.374 82.0403 148.771 80.5356C146.169 79.0309 143.993 76.9163 142.244 74.1916C140.536 71.4263 139.337 68.2136 138.645 64.5536ZM164.448 64.5536C164.448 62.5203 164.021 60.7309 163.167 59.1856C162.354 57.5996 161.215 56.3796 159.751 55.5256C158.287 54.6309 156.62 54.1836 154.749 54.1836C152.838 54.1836 151.028 54.6309 149.32 55.5256C147.612 56.3796 146.108 57.5996 144.806 59.1856C143.546 60.7309 142.549 62.5203 141.817 64.5536C142.549 66.5869 143.546 68.3763 144.806 69.9216C146.108 71.4669 147.612 72.6869 149.32 73.5816C151.028 74.4356 152.838 74.8626 154.749 74.8626C156.62 74.8626 158.287 74.4356 159.751 73.5816C161.215 72.6869 162.354 71.4669 163.167 69.9216C164.021 68.3763 164.448 66.5869 164.448 64.5536Z" fill="white"/>
<path d="M200.672 82.7926C196.361 82.7926 192.579 82.0403 189.326 80.5356C186.073 78.9903 183.531 76.8553 181.701 74.1306C179.871 71.3653 178.956 68.1729 178.956 64.5536C178.956 60.8936 179.871 57.7013 181.701 54.9766C183.531 52.2113 186.073 50.0763 189.326 48.5716C192.579 47.0263 196.361 46.2536 200.672 46.2536C204.983 46.2536 208.765 47.0263 212.018 48.5716C215.271 50.0763 217.793 52.2113 219.582 54.9766C221.412 57.7013 222.327 60.8936 222.327 64.5536C222.327 68.1729 221.412 71.3653 219.582 74.1306C217.793 76.8553 215.271 78.9903 212.018 80.5356C208.765 82.0403 204.983 82.7926 200.672 82.7926ZM200.672 75.0456C203.031 75.0456 205.044 74.6186 206.711 73.7646C208.419 72.9106 209.72 71.7109 210.615 70.1656C211.55 68.5796 212.018 66.7089 212.018 64.5536C212.018 62.3576 211.55 60.4869 210.615 58.9416C209.72 57.3556 208.419 56.1356 206.711 55.2816C205.044 54.4276 203.031 54.0006 200.672 54.0006C198.354 54.0006 196.341 54.4276 194.633 55.2816C192.925 56.1356 191.603 57.3556 190.668 58.9416C189.773 60.4869 189.326 62.3576 189.326 64.5536C189.326 66.7089 189.773 68.5796 190.668 70.1656C191.603 71.7109 192.925 72.9106 194.633 73.7646C196.341 74.6186 198.354 75.0456 200.672 75.0456Z" fill="white"/>
<path d="M236.059 92.8576C233.782 92.8576 231.728 92.5729 229.898 92.0036C228.068 91.4343 226.34 90.6006 224.713 89.5026V82.1826C226.421 83.2806 228.048 84.0736 229.593 84.5616C231.138 85.0496 232.846 85.2936 234.717 85.2936C236.384 85.2936 237.869 84.9073 239.17 84.1346C240.471 83.4026 241.549 82.0809 242.403 80.1696L256.86 47.1686H267.657L250.333 83.4636C249.276 85.7409 247.995 87.5709 246.49 88.9536C244.985 90.3363 243.338 91.3326 241.549 91.9426C239.8 92.5526 237.97 92.8576 236.059 92.8576ZM238.255 79.6816L222.944 47.1686H234.168L248.198 79.6816H238.255Z" fill="white"/>
</g>
<defs>
<filter id="filter0_d_44_745" x="34.2893" y="33.9076" width="239.368" height="65.95" filterUnits="userSpaceOnUse" color-interpolation-filters="sRGB">
<feFlood flood-opacity="0" result="BackgroundImageFix"/>
<feColorMatrix in="SourceAlpha" type="matrix" values="0 0 0 0 0 0 0 0 0 0 0 0 0 0 0 0 0 0 127 0" result="hardAlpha"/>
<feOffset dx="2" dy="3"/>
<feGaussianBlur stdDeviation="2"/>
<feComposite in2="hardAlpha" operator="out"/>
<feColorMatrix type="matrix" values="0 0 0 0 0 0 0 0 0 0 0 0 0 0 0 0 0 0 0.6 0"/>
<feBlend mode="normal" in2="BackgroundImageFix" result="effect1_dropShadow_44_745"/>
<feBlend mode="normal" in="SourceGraphic" in2="effect1_dropShadow_44_745" result="shape"/>
</filter>
</defs>
</svg>
