<svg width="164" height="183" viewBox="0 0 164 183" fill="none" xmlns="http://www.w3.org/2000/svg">
<g opacity="0.6">
<path d="M81.9786 171.111C77.9605 176.576 73.0519 180.444 66.4691 181.869C55.0703 184.341 43.8424 178.67 38.7699 168.069C37.8967 166.383 36.4741 165.046 34.7376 164.279C29.6199 162.276 25.2089 158.804 22.06 154.3C18.911 149.796 17.1647 144.461 17.0409 138.967C16.9982 137.698 16.2715 135.96 15.2812 135.298C-4.01841 122.26 -5.22953 98.1801 12.745 83.1479C12.9651 82.9082 13.1653 82.6508 13.3434 82.3785C9.59607 77.0068 7.40179 71.0224 7.73664 64.2615C8.16409 55.6696 11.9257 48.873 18.5228 43.4657C19.5344 42.6393 20.6601 41.0292 20.5532 39.9036C19.0286 26.6881 30.4844 14.3061 44.8826 15.8022C45.4427 15.8306 46.0038 15.8306 46.5639 15.8022C54.0729 -1.93724 67.5092 -4.92944 82.0499 7.78026C95.7356 -7.08809 114.209 1.72463 117.251 15.7309C118.462 15.7309 119.73 15.7309 121.005 15.7309C134.071 15.5315 144.003 25.769 143.554 38.8278C143.511 40.1601 143.832 42.162 144.722 42.7747C155.993 50.5259 161.158 67.6241 150.706 82.4283C151.376 83.0268 152.053 83.6466 152.751 84.2379C156.524 87.3858 159.503 91.3776 161.446 95.8903C163.39 100.403 164.244 105.31 163.94 110.214C163.635 115.118 162.181 119.882 159.694 124.119C157.206 128.357 153.757 131.949 149.624 134.606C147.935 135.704 146.909 136.651 146.888 138.967C146.802 150.543 139.856 160.133 128.999 164.386C127.62 164.877 126.453 165.828 125.693 167.079C117.023 185.296 95.8567 187.925 83.0686 172.287C82.7694 171.952 82.456 171.638 81.9786 171.111ZM23.0823 49.2506C18.8398 52.3418 15.9739 56.9691 15.0966 62.1445C14.2194 67.32 15.4004 72.6333 18.3874 76.9498C19.3706 78.3746 20.2611 79.258 22.1348 78.4174C24.5713 77.3274 26.7869 77.8189 27.5991 80.5119C28.4611 83.3616 26.388 84.416 24.037 85.2709C11.2133 89.9516 4.68032 102.07 8.04298 114.701C11.3059 126.941 23.0039 134.058 36.4688 131.921C38.9979 131.522 41.5199 131.393 42.0186 134.606C42.5173 137.82 40.1164 138.76 37.5944 138.967C33.2771 139.316 28.9456 139.401 24.3077 139.608C24.5357 146.02 27.421 151.341 32.8568 155.16C35.0186 156.748 37.4885 157.866 40.1079 158.442C42.7274 159.019 45.4385 159.042 48.0671 158.508C50.6319 158.003 53.4388 157.532 54.08 160.924C54.7497 164.486 51.8928 165.127 49.1643 165.561C48.1811 165.718 47.2264 166.039 46.1934 166.274C47.8258 169.367 50.376 171.88 53.4937 173.465C56.6115 175.051 60.1437 175.632 63.6051 175.129C70.9218 173.968 77.2552 168.668 77.8964 161.251C78.6801 152.239 78.0816 143.113 78.0816 134.072C77.8351 133.954 77.5803 133.854 77.3194 133.773C76.6069 133.616 75.8945 133.488 75.2248 133.345C60.6628 130.496 50.6176 122.046 45.2459 108.311C42.0393 100.05 41.9104 90.9116 44.8826 82.5637C45.6591 80.2483 47.4687 79.0016 49.4848 80.1343C50.6746 80.8468 51.0593 83.0481 51.5723 84.6582C51.7504 85.2282 51.2303 86.0047 51.0736 86.6958C48.06 99.6904 51.4298 110.854 61.6032 119.368C71.7767 127.881 83.5531 129.456 95.586 123.799C107.619 118.142 113.91 108.183 114.052 94.8744C114.28 73.5016 94.0614 58.4623 73.1303 64.1261C70.6795 64.7887 68.1433 65.3016 67.2171 62.2524C66.177 58.9681 68.642 57.8567 71.221 57.1871C73.5934 56.5815 76.0014 56.1184 78.4664 55.5698C78.4664 43.2092 78.5946 31.1051 78.4165 19.0081C78.3239 12.9169 73.4295 7.97261 67.4736 7.29581C64.612 7.00821 61.7383 7.70969 59.331 9.28341C56.9238 10.8571 55.1284 13.2081 54.2439 15.9447C53.7024 17.7257 53.8449 18.9297 55.5405 20.1765C57.3867 21.6549 59.0426 23.3563 60.4705 25.2418C62.1233 27.2723 62.85 29.6233 60.1855 31.3758C57.6778 33.0358 56.0605 31.3758 54.6571 29.3525C53.4509 27.5045 51.8308 25.9629 49.9251 24.8499C48.0195 23.737 45.8808 23.0833 43.6786 22.9407C40.459 22.6451 37.2321 23.4224 34.5004 25.1517C31.7686 26.8809 29.6854 29.465 28.5751 32.5015C26.1529 38.9774 28.2474 45.546 34.3529 50.0058C36.4902 51.5731 37.5944 53.3613 35.9701 55.7052C34.3458 58.0491 32.2085 57.5077 30.3633 55.9617C27.9339 53.8671 25.647 51.6301 23.0823 49.2506ZM139.521 139.793C134.534 139.437 129.797 139.259 125.137 138.703C122.893 138.432 121.483 136.808 122.038 134.364C122.544 132.113 124.268 131.472 126.42 131.792C127.132 131.899 127.845 132.006 128.557 132.134C134.522 133.168 140.657 131.925 145.749 128.652C150.842 125.379 154.52 120.314 156.057 114.458C157.593 108.603 156.877 102.385 154.048 97.0325C151.22 91.6804 146.486 87.5848 140.782 85.5559C138.389 84.6796 135.567 83.9672 136.508 80.6259C137.391 77.3915 139.992 77.7762 142.628 78.4886C143.046 78.5646 143.477 78.5458 143.887 78.4336C144.298 78.3214 144.678 78.1187 145 77.8403C152.381 70.3527 149.987 54.544 141.06 49.4359C138.21 51.8866 135.56 54.4798 132.554 56.4746C131.649 57.0731 129.191 56.4746 128.279 55.6055C127.567 54.893 127.788 52.7558 128.18 51.4591C128.422 50.6327 129.733 50.1127 130.566 49.4501C135.553 45.5246 137.384 40.3239 136.03 34.2683C134.741 28.4691 130.922 24.622 125.095 23.2969C118.348 21.7723 112.983 24.1661 109.086 29.8441C107.797 31.7249 106.151 32.7936 103.986 31.4186C101.713 29.9937 101.67 27.8564 103.195 25.9115C104.719 23.9666 106.436 21.7367 108.495 20.2121C110.412 18.7873 110.355 17.4621 109.77 15.6597C108.856 13.0008 107.076 10.726 104.714 9.20025C102.353 7.6745 99.5468 6.98626 96.7472 7.24594C91.0478 7.83725 85.9468 12.4395 85.8044 18.1532C85.498 30.5922 85.7117 43.0454 85.7117 55.4274C109.621 62.4946 120.97 74.8552 121.248 93.9697C121.469 102.465 118.871 110.795 113.86 117.658C106.935 127.204 97.3884 132.398 85.6761 133.965C85.6761 142.514 85.6334 150.8 85.7117 159.1C85.766 160.523 86.0252 161.932 86.4812 163.282C87.576 166.631 89.6596 169.569 92.4574 171.711C95.2551 173.852 98.636 175.096 102.155 175.279C108.923 175.571 115.277 171.888 117.757 166.124C116.574 165.889 115.427 165.618 114.266 165.412C111.68 165.006 109.4 164.058 109.949 160.959C110.497 157.86 113.055 157.874 115.562 158.373C116.033 158.473 116.489 158.608 116.987 158.679C128.586 160.489 140.155 150.551 139.521 139.793Z" fill="white"/>
<path d="M83.2182 73.4375C87.0582 73.5729 90.9409 75.7956 93.1566 80.3552C95.3722 84.9147 94.7667 89.5098 91.7317 93.7559C89.4235 96.9476 87.4999 100.431 85.1133 103.552C84.3296 104.571 82.3562 105.632 81.3873 105.311C80.1833 104.898 78.4949 102.889 78.6943 101.906C79.3101 99.1811 80.3511 96.5702 81.7791 94.1691C82.748 92.4593 84.8497 91.3194 85.6476 89.5882C86.4455 87.857 87.1936 85.1142 86.474 83.4898C85.8328 82.065 82.9546 80.5689 81.4158 80.8752C79.6917 81.2243 78.2598 83.4685 76.9133 85.0643C76.3576 85.7197 76.6425 87.2657 76.0441 87.6647C74.89 88.4341 73.1944 89.3389 72.0901 88.9755C70.9859 88.6122 69.8531 86.8382 69.7534 85.563C69.2191 79.2295 75.2034 73.4589 83.2182 73.4375Z" fill="white"/>
<path d="M59.1738 49.0796C54.6326 49.0485 50.2593 47.3585 46.8773 44.3277C45.1746 42.7889 44.4479 40.9579 46.0367 39.0415C47.6254 37.1251 49.4634 37.4029 51.3799 38.7708C57.3429 43.0453 60.5915 43.0026 66.7683 38.728C68.6918 37.3887 70.8718 37.0467 71.969 39.1555C72.603 40.388 72.2326 42.9812 71.2566 44.0427C68.1504 47.5479 63.8259 48.8587 59.1738 49.0796Z" fill="white"/>
<path d="M53.8306 148.77C52.7121 148.898 52.2419 148.962 51.7645 148.998C49.5703 149.154 48.01 148.285 47.6966 146.012C47.3831 143.74 48.6797 142.486 50.7743 141.937C58.1692 140.007 66.5545 144.873 68.7488 152.275C69.4612 154.633 68.8485 156.677 66.6115 157.027C65.265 157.233 62.8285 156.001 62.2728 154.775C60.392 150.714 57.7062 148.563 53.8306 148.77Z" fill="white"/>
<path d="M56.317 73.7439C55.3481 72.4972 53.8663 71.3787 53.5314 69.9823C53.0113 67.845 54.4789 66.0355 56.6661 66.3632C58.0197 66.5698 60.0003 68.2013 60.1285 69.3625C60.2781 70.7019 58.7036 72.2122 57.8701 73.6798L56.317 73.7439Z" fill="white"/>
<path d="M86.0679 113.725C84.6431 114.559 83.1541 116.14 81.7934 116.019C80.5965 115.912 78.5305 113.718 78.7157 112.828C78.9935 111.445 80.7746 109.565 82.0855 109.429C83.3963 109.294 84.7642 111.146 86.1178 112.115L86.0679 113.725Z" fill="white"/>
<path d="M105.054 49.0868C100.409 48.8873 96.2484 47.4624 92.7932 44.2494C91.0905 42.6678 90.4778 40.8226 92.0808 38.956C93.6837 37.0895 95.5645 37.4884 97.4453 38.8349C103.18 42.967 106.949 42.9884 112.549 38.8777C114.43 37.5027 116.275 37.0966 117.899 38.9204C119.702 40.9508 118.854 42.8459 117.044 44.456C113.722 47.3704 109.473 49.0113 105.054 49.0868Z" fill="white"/>
<path d="M111.138 148.905C106.607 148.627 104.014 150.087 102.197 154.334C101.221 156.563 99.9389 158.145 97.3742 157.183C94.6741 156.129 94.7026 153.956 95.6002 151.555C96.8133 148.374 99.0523 145.687 101.963 143.921C104.874 142.155 108.291 141.409 111.673 141.802C114.223 142.051 116.66 142.671 116.396 145.849C116.132 149.026 113.71 149.268 111.138 148.905Z" fill="white"/>
</g>
</svg>
